<?xml version="1.0" encoding="UTF-8"?>
<svg width="37px" height="39px" viewBox="0 0 37 39" version="1.1" xmlns="http://www.w3.org/2000/svg" xmlns:xlink="http://www.w3.org/1999/xlink">
    <!-- Generator: sketchtool 55 (78076) - https://sketchapp.com -->
    <title>8926820B-BA1B-4F1A-82C2-DC587871FBC7</title>
    <desc>Created with sketchtool.</desc>
    <g id="🦢-Screens" stroke="none" stroke-width="1" fill="none" fill-rule="evenodd">
        <g id="03.1-ABOUT-US" transform="translate(-93.000000, -829.000000)">
            <g id="Icons-/-Big-/-Bird" transform="translate(91.000000, 829.000000)">
                <g id="bird" transform="translate(2.000000, 0.000000)">
                    <path d="M18.5116373,2.02510838 C8.31820992,2.02510838 0.0251301827,10.3180734 0.0251301827,20.5115949 C0.0251301827,30.7050337 8.31820992,38.9980814 18.5116373,38.9980814 C28.7050647,38.9980814 36.9981032,30.7050337 36.9981032,20.5115949 C36.9980618,10.3180734 28.7049821,2.02510838 18.5116373,2.02510838 Z M18.5116767,36.9440273 C9.45079283,36.9440273 2.07918424,29.5723787 2.07918424,20.5116149 C2.07918424,11.450771 9.45079283,4.07916243 18.5116767,4.07916243 C27.5725206,4.07916243 34.9440491,11.450771 34.9440491,20.5116149 C34.9440091,29.5724587 27.5724405,36.9440273 18.5116767,36.9440273 Z" id="Shape" fill="#000000" fill-rule="nonzero"></path>
                    <circle id="Oval" fill="#FFFFFF" cx="28" cy="5" r="5"></circle>
                    <path d="M3.9375,22.5617042 L4.9693125,22.5617042 C5.4048125,24.6987042 7.29875,26.3117042 9.5625,26.3117042 L18.0625,26.3117042 L18.0625,31.0617042 C18.0625,31.5794542 18.48225,31.9992042 19,31.9992042 L26.5,31.9992042 C27.01775,31.9992042 27.4375,31.5794542 27.4375,31.0617042 C27.4375,30.5439542 27.01775,30.1242042 26.5,30.1242042 L23.6875,30.1242042 L23.6875,26.1278917 C27.3348125,25.4060167 30.29525,22.4725167 31.006375,18.8040167 C31.38625,16.8445167 31.165,14.8703292 30.3664375,13.0948292 C29.8584375,11.9652667 29.5270625,10.6993292 29.3876875,9.37420416 L34.0625,9.37420416 C34.58025,9.37420416 35,8.95445416 35,8.43670416 C35,6.09264166 33.2514375,4.21832916 31.1085625,3.82764166 C30.6360625,1.27232916 28.143875,-0.454858341 25.488625,0.105954159 C23.7959375,0.463454159 22.3785,1.82426666 21.9615,3.49207916 C21.7300625,4.41745416 21.769875,5.36795416 22.0765625,6.24089166 C22.61175,7.76420416 22.6893125,9.54632916 22.3083125,11.3338292 C22.144875,11.3195167 21.9795625,11.3117042 21.8125,11.3117042 C19.7799375,11.3117042 17.8006875,12.0282667 16.241625,13.3274542 L11.8808125,16.9367042 L7.6875,16.9367042 C5.1028125,16.9367042 3,19.0395167 3,21.6242042 C3,22.1419542 3.41975,22.5617042 3.9375,22.5617042 Z M6.91125,22.5617042 L14.31175,22.5617042 C14.847125,23.2751417 15.4781875,23.9055167 16.1855625,24.4367042 L9.5625,24.4367042 C8.3403125,24.4367042 7.29825,23.6528292 6.91125,22.5617042 Z M19.9375,30.1242042 L19.9375,26.1225167 C20.5519375,26.2470792 21.1795,26.3107042 21.8125,26.3109542 L21.8125,30.1242042 L19.9375,30.1242042 Z M32.9540625,7.49920416 L30.2470625,7.49920416 C30.6365,6.97932916 30.91675,6.38164166 31.06525,5.74482916 C31.933625,6.00570416 32.6425625,6.66770416 32.9540625,7.49920416 Z M23.8455,5.61926666 C23.6608125,5.09351666 23.6383125,4.51526666 23.7804375,3.94689166 C24.027375,2.95932916 24.8695,2.15301666 25.876,1.94045416 C27.72725,1.54945416 29.3125,2.94757916 29.3125,4.68670416 C29.3125,5.68776666 28.773375,6.62151666 27.9055625,7.12351666 C27.615875,7.29107916 27.4375,7.60032916 27.4375,7.93501666 C27.4375,9.93026666 27.821375,12.0071417 28.6564375,13.8639542 C29.2954375,15.2847042 29.4715,16.8695792 29.165625,18.4472042 C28.58875,21.4232667 26.0863125,23.8436417 23.08025,24.3331417 C20.706,24.7197667 18.4635,23.9993292 16.8451875,22.5617042 L21.8125,22.5617042 C24.914125,22.5617042 27.4375,20.0383292 27.4375,16.9367042 C27.4375,14.6583292 26.075875,12.6919542 24.123625,11.8086417 C24.5959375,9.65820416 24.5025625,7.48945416 23.8455,5.61926666 Z M17.4395,14.7698917 C18.66475,13.7489542 20.2176875,13.1866417 21.8125,13.1866417 C23.88025,13.1866417 25.5625,14.8688917 25.5625,16.9366417 C25.5625,19.0043917 23.88025,20.6866417 21.8125,20.6866417 C21.3195,20.6866417 11.3345,20.6866417 10.2905625,20.6866417 L17.4395,14.7698917 Z M7.6875,18.8117042 L9.6153125,18.8117042 L7.349875,20.6867042 L5.035625,20.6867042 C5.4225625,19.5953917 6.4651875,18.8117042 7.6875,18.8117042 Z" id="Shape" fill="#000000" fill-rule="nonzero"></path>
                </g>
            </g>
        </g>
    </g>
</svg>