<?xml version="1.0" encoding="UTF-8"?>
<svg width="38px" height="38px" viewBox="0 0 38 38" version="1.1" xmlns="http://www.w3.org/2000/svg" xmlns:xlink="http://www.w3.org/1999/xlink">
    <!-- Generator: sketchtool 55 (78076) - https://sketchapp.com -->
    <title>706E361F-9A09-434C-83E9-D7B50BEECC41</title>
    <desc>Created with sketchtool.</desc>
    <g id="🦢-Screens" stroke="none" stroke-width="1" fill="none" fill-rule="evenodd">
        <g id="03.1-ABOUT-US" transform="translate(-91.000000, -945.000000)" fill="#000000" fill-rule="nonzero">
            <g id="Icons-/-Big-/-Earth" transform="translate(90.000000, 944.000000)">
                <g id="global-(1)" transform="translate(1.000000, 1.000000)">
                    <path d="M31.1385345,16.5870209 C31.1599884,16.2536164 31.171875,15.9190521 31.171875,15.5859375 C31.171875,10.6472015 28.8623962,6.2381439 25.2674255,3.38072203 C25.1587067,3.24707031 25.0195465,3.13980106 24.8609619,3.06790165 C22.2673645,1.14140318 19.0574036,0 15.5859375,0 C6.99192808,0 0,6.99192808 0,15.5859375 C0,24.1799469 6.99192808,31.171875 15.5859375,31.171875 C15.9190521,31.171875 16.2536164,31.1602783 16.5870209,31.1391144 C18.2659302,35.163742 22.241272,38 26.8671875,38 C33.0058899,38 38,33.0058899 38,26.8671875 C38,22.241272 35.1634521,18.2656403 31.1385345,16.5870209 Z M28.3982391,11.8007812 L24.6516419,11.8007812 C24.0480347,11.8007812 23.5485077,11.3099518 23.5386505,10.7063446 C23.5084992,8.89523312 22.010498,7.421875 20.1990967,7.421875 L19.4076233,7.421875 C18.7935791,7.421875 18.2943421,6.922348 18.2943421,6.30859375 C18.2943421,5.6948395 18.7935791,5.1953125 19.4076233,5.1953125 L23.9723664,5.1953125 C26.0531006,6.87799072 27.6201019,9.17152407 28.3982391,11.8007812 Z M2.2265625,15.5859375 C2.2265625,13.5353546 2.69158936,11.5917511 3.52046205,9.85369873 C3.58250425,9.86442564 3.6457062,9.87109375 3.7109375,9.87109375 L5.66700746,9.87109375 C6.27583315,9.87109375 6.77507017,10.366272 6.78028871,10.9748078 C6.7959442,12.8007049 8.29394531,14.2859497 10.1198425,14.2859497 L12.147522,14.2859497 C12.6745911,14.2859497 13.1036683,14.7150269 13.1036683,15.242096 C13.1036683,15.7694549 12.6745911,16.1982422 12.147522,16.1982422 L8.69837954,16.1982422 C6.97395327,16.1982422 5.54495243,17.4924316 5.37477114,19.2084503 C5.20429995,20.9250488 6.35179136,22.474945 8.04345703,22.8129883 C8.56298828,22.9170685 8.94017027,23.376297 8.94017027,23.9051056 C8.94017027,24.5188599 8.44093325,25.0183869 7.82688902,25.0183869 L6.13435366,25.0183869 C3.72108461,22.6001892 2.2265625,19.2644043 2.2265625,15.5859375 Z M15.5859375,28.9453125 C13.1152649,28.9453125 10.7996979,28.2703857 8.81231689,27.0965119 C10.1746369,26.6749725 11.1667328,25.4036865 11.1667328,23.9051056 C11.1667328,22.3183899 10.0366364,20.9409943 8.48007198,20.6296234 C7.91589355,20.5168457 7.53378292,20.0002136 7.59031675,19.4282074 C7.64714048,18.8562012 8.12347412,18.4248047 8.69808956,18.4248047 L12.147522,18.4248047 C13.9023895,18.4248047 15.3302308,16.9969635 15.3302308,15.242096 C15.3302308,13.4872284 13.9023895,12.0593872 12.147522,12.0593872 L10.1198425,12.0593872 C9.51130678,12.0593872 9.01177979,11.564209 9.00685121,10.9556732 C8.99119566,9.13006592 7.49319462,7.64453125 5.66700746,7.64453125 L4.85002134,7.64453125 C7.28619385,4.35977177 11.1913757,2.2265625 15.5859375,2.2265625 C17.1236572,2.2265625 18.6007843,2.48864746 19.9767303,2.96875 L19.4076233,2.96875 C17.5660706,2.96875 16.0677796,4.46704102 16.0677796,6.30859375 C16.0677796,8.15014648 17.5660706,9.6484375 19.4076233,9.6484375 L20.1990967,9.6484375 C20.8029938,9.6484375 21.3022308,10.1395569 21.3123779,10.7431641 C21.3422394,12.5539856 22.8402405,14.0273437 24.6516419,14.0273437 L28.8539886,14.0273437 C28.9137116,14.5387573 28.9453125,15.0585785 28.9453125,15.5859375 C28.9453125,15.7001648 28.943573,15.8143921 28.9406738,15.9289093 C28.2686462,15.8016357 27.5757446,15.734375 26.8671875,15.734375 C20.7284851,15.734375 15.734375,20.7284851 15.734375,26.8671875 C15.734375,27.5754547 15.8016357,28.2683563 15.9286194,28.940094 C15.8143921,28.9429932 15.6998749,28.9453125 15.5859375,28.9453125 Z M26.8671875,35.7734375 C22.9199676,35.7734375 19.5647583,33.1920166 18.3998718,29.6289368 C18.3946533,29.6115417 18.3891449,29.5944367 18.3833465,29.5779114 C18.109375,28.7226562 17.9609375,27.812027 17.9609375,26.8671875 C17.9609375,21.9562836 21.9562836,17.9609375 26.8671875,17.9609375 C31.7780914,17.9609375 35.7734375,21.9562836 35.7734375,26.8671875 C35.7734375,31.7780914 31.7780914,35.7734375 26.8671875,35.7734375 Z" id="Shape"></path>
                    <path d="M30.5302887,21.7356567 L21.6240387,25.6730194 C21.1993103,25.8608856 20.9357757,26.292572 20.962738,26.7561493 C20.9899902,27.2197266 21.301651,27.6177826 21.745514,27.7549134 L24.9795379,28.7548371 L25.9794616,31.988861 C26.1165924,32.432724 26.5146484,32.7443848 26.9782257,32.771637 C26.9999694,32.7727966 27.0217132,32.7733765 27.043457,32.7733765 C27.4818115,32.7733765 27.8824768,32.5150604 28.0613556,32.1103363 L31.9987183,23.2040863 C32.184555,22.7834167 32.0929413,22.2917175 31.7676544,21.9667206 C31.4426575,21.6414337 30.9509583,21.54982 30.5302887,21.7356567 L30.5302887,21.7356567 Z M27.2278442,28.4889831 L26.9332886,27.536026 C26.8245697,27.1846466 26.5497284,26.9098053 26.198349,26.8010864 L25.2453919,26.5065308 L28.7986145,24.9357605 L27.2278442,28.4889831 Z" id="Shape"></path>
                </g>
            </g>
        </g>
    </g>
</svg>