<?xml version="1.0" encoding="UTF-8"?>
<svg width="38px" height="32px" viewBox="0 0 38 32" version="1.1" xmlns="http://www.w3.org/2000/svg" xmlns:xlink="http://www.w3.org/1999/xlink">
    <!-- Generator: sketchtool 55 (78076) - https://sketchapp.com -->
    <title>D8742F5A-37E0-471A-9F39-951069F5BF60</title>
    <desc>Created with sketchtool.</desc>
    <g id="🦢-Screens" stroke="none" stroke-width="1" fill="none" fill-rule="evenodd">
        <g id="03.1-ABOUT-US" transform="translate(-91.000000, -722.000000)" fill="#333333" fill-rule="nonzero">
            <g id="Icons-/-Big-/-Binoclus" transform="translate(90.000000, 718.000000)">
                <g id="binoculars" transform="translate(1.000000, 4.000000)">
                    <path d="M8.56757039,31.1552423 C3.84466765,31.1552423 0,27.312286 0,22.5873866 C0,21.5517024 0.183690626,20.5374106 0.546793352,19.5716087 C1.7961178,16.2506305 5.02068693,14.0198162 8.56757039,14.0198162 C13.2907584,14.0198162 17.1354261,17.8627725 17.1354261,22.5873866 C17.1354261,27.312286 13.2907584,31.1552423 8.56757039,31.1552423 Z M8.56757039,16.3564523 C5.98791507,16.3564523 3.64215155,17.9797184 2.73396683,20.3942233 C2.47069601,21.0950429 2.33663604,21.8335134 2.33663604,22.5873866 C2.33663604,26.0238846 5.13135775,28.8186063 8.56757039,28.8186063 C12.0040683,28.8186063 14.79879,26.0238846 14.79879,22.5873866 C14.79879,19.151174 12.0040683,16.3564523 8.56757039,16.3564523 Z" id="Shape"></path>
                    <path d="M15.967108,23.7557047 C15.3221942,23.7557047 14.79879,23.2323004 14.79879,22.5873866 L14.79879,5.45224586 C14.79879,4.80733205 15.3221942,4.28392784 15.967108,4.28392784 C16.6120219,4.28392784 17.1354261,4.80733205 17.1354261,5.45224586 L17.1354261,22.5873866 C17.1354261,23.2323004 16.6120219,23.7557047 15.967108,23.7557047 Z" id="Path"></path>
                    <path d="M1.64038013,21.151234 C1.50318265,21.151234 1.36455894,21.1278448 1.22907282,21.0765027 C0.62466226,20.8488861 0.319461959,20.1745931 0.546793352,19.5716087 L6.57834926,3.53290695 C6.80596587,2.92849639 7.48025879,2.62472224 8.08153184,2.85062748 C8.68594247,3.07824416 8.99142799,3.75253708 8.76381131,4.35552156 L2.73396683,20.3942233 C2.55797754,20.8631478 2.11244224,21.151234 1.64038013,21.151234 Z" id="Path"></path>
                    <path d="M15.967108,6.62056388 C15.3221942,6.62056388 14.79879,6.09715967 14.79879,5.45224586 C14.79879,3.7339969 13.4014292,2.33663604 11.6831802,2.33663604 C10.3947787,2.33663604 9.22646072,3.14670029 8.77322408,4.35095782 C8.73129468,4.45193058 8.70305651,4.52067193 8.68594247,4.59083951 C8.52392962,5.21692784 7.88700236,5.59400709 7.2623401,5.43028287 C6.63910407,5.26998138 6.26059867,4.63276883 6.42261152,4.00810665 C6.46938988,3.82897976 6.5347085,3.64985288 6.60031226,3.49097762 C7.37900082,1.41903863 9.42755059,0 11.6831802,0 C14.6895454,0 17.1354261,2.44559542 17.1354261,5.45224586 C17.1354261,6.09715967 16.6120219,6.62056388 15.967108,6.62056388 Z" id="Path"></path>
                    <path d="M21.4190686,6.62056388 C20.7741548,6.62056388 20.2507506,6.09715967 20.2507506,5.45224586 C20.2507506,2.44559542 22.6966312,0 25.7029965,0 C27.9586261,0 30.0071758,1.41903863 30.7998409,3.52976943 L30.9339008,3.91454993 C31.1472558,4.52380952 30.8249414,5.19040111 30.2156818,5.40232991 C29.6021438,5.61254727 28.9401159,5.29165916 28.7281871,4.68268478 L28.6035399,4.32443102 C28.1597159,3.14670029 26.9913979,2.33663604 25.7029965,2.33663604 C23.9847475,2.33663604 22.5873866,3.7339969 22.5873866,5.45224586 C22.5873866,6.09715967 22.0639824,6.62056388 21.4190686,6.62056388 L21.4190686,6.62056388 Z" id="Path"></path>
                    <path d="M21.4190686,23.7557047 C20.7741548,23.7557047 20.2507506,23.2323004 20.2507506,22.5873866 L20.2507506,5.45224586 C20.2507506,4.80733205 20.7741548,4.28392784 21.4190686,4.28392784 C22.0639824,4.28392784 22.5873866,4.80733205 22.5873866,5.45224586 L22.5873866,22.5873866 C22.5873866,23.2323004 22.0639824,23.7557047 21.4190686,23.7557047 Z" id="Path"></path>
                    <path d="M35.7457965,21.151234 C35.2723083,21.151234 34.8281991,20.8631478 34.6522098,20.3942233 L28.6206539,4.35552156 C28.3933225,3.75111093 28.7002342,3.07824416 29.3029334,2.85062748 C29.9059179,2.62329608 30.5787846,2.92849639 30.8078274,3.53290695 L36.8393833,19.5716087 C37.0667147,20.1760194 36.7600883,20.8488861 36.1571038,21.0765027 C36.0216177,21.1278448 35.882994,21.151234 35.7457965,21.151234 Z" id="Path"></path>
                    <path d="M28.8186063,31.1552423 C24.0954182,31.1552423 20.2507506,27.312286 20.2507506,22.5873866 C20.2507506,17.8627725 24.0954182,14.0198162 28.8186063,14.0198162 C32.3654897,14.0198162 35.5900589,16.2506305 36.8393833,19.5716087 C37.202486,20.5374106 37.3861767,21.5517024 37.3861767,22.5873866 C37.3861767,27.312286 33.541509,31.1552423 28.8186063,31.1552423 L28.8186063,31.1552423 Z M28.8186063,16.3564523 C25.3821083,16.3564523 22.5873866,19.151174 22.5873866,22.5873866 C22.5873866,26.0238846 25.3821083,28.8186063 28.8186063,28.8186063 C32.2548189,28.8186063 35.0495406,26.0238846 35.0495406,22.5873866 C35.0495406,21.8335134 34.9154807,21.0950429 34.6522098,20.3942233 C33.7425989,17.9797184 31.3982616,16.3564523 28.8186063,16.3564523 Z" id="Shape"></path>
                    <path d="M21.4190686,21.8086982 L15.967108,21.8086982 C15.3221942,21.8086982 14.79879,21.2852939 14.79879,20.6403801 C14.79879,19.9954663 15.3221942,19.4720621 15.967108,19.4720621 L21.4190686,19.4720621 C22.0639824,19.4720621 22.5873866,19.9954663 22.5873866,20.6403801 C22.5873866,21.2852939 22.0639824,21.8086982 21.4190686,21.8086982 Z" id="Path"></path>
                    <path d="M21.4190686,14.79879 L15.967108,14.79879 C15.3221942,14.79879 14.79879,14.2753858 14.79879,13.630472 C14.79879,12.9855582 15.3221942,12.462154 15.967108,12.462154 L21.4190686,12.462154 C22.0639824,12.462154 22.5873866,12.9855582 22.5873866,13.630472 C22.5873866,14.2753858 22.0639824,14.79879 21.4190686,14.79879 Z" id="Path"></path>
                </g>
            </g>
        </g>
    </g>
</svg>