<?xml version="1.0" encoding="UTF-8"?>
<svg width="1280px" height="1024px" viewBox="0 0 1280 1024" version="1.1" xmlns="http://www.w3.org/2000/svg" xmlns:xlink="http://www.w3.org/1999/xlink">
    <!-- Generator: sketchtool 54.1 (76490) - https://sketchapp.com -->
    <title>EDCEA9DB-1843-4A32-AEA2-9504C69E97F0</title>
    <desc>Created with sketchtool.</desc>
    <g id="Page-1" stroke="none" stroke-width="1" fill="none" fill-rule="evenodd">
        <g id="Sign-in">
            <g id="Bg">
                <rect id="Rectangle" fill="#546E7A" x="0" y="0" width="1280" height="1024"></rect>
                <path d="M154.215518,580.737774 C150.684593,576.998503 151.86013,572.761682 141.54975,573.010457 C131.243362,573.259268 128.883982,591.205439 128.883982,591.205439 C128.883982,591.205439 118.872611,589.709057 109.446311,599.181531 C100.028964,608.657553 89.7227913,641.557022 75,648.790974 C75,648.790974 84.632214,650.262515 95.6544092,648.264925 C97.0279903,652.60839 100.213525,656.034917 102.101201,657.765516 L101.207931,657.765516 C101.207931,657.765516 92.9620221,658.764348 91.1965594,664 L136.255929,664 C136.255929,664 133.900541,657.765516 123.004443,657.765516 L118.432707,657.765516 C117.442518,656.098522 114.973405,651.829671 113.582889,648.293133 C112.761243,646.203112 113.410129,643.14638 114.3329,640.469818 C115.938288,639.239955 117.484672,637.903539 118.879288,636.328904 C133.900875,619.377797 148.918148,620.625313 149.508182,587.722204 C149.508182,587.722204 161.289439,587.473393 166,585.479406 C165.995793,585.475858 157.754091,584.477026 154.214429,580.737846 L154.215518,580.737774 Z M112.999969,657.999723 L105.998986,657.999723 C105.040779,656.314589 102.651416,651.999284 101.305812,648.424262 C101.142713,647.989493 101.053006,647.504429 101,646.997785 C102.73297,646.458818 104.453623,645.78333 106.149851,645 C106.492353,650.975326 110.72883,655.819076 113,658 L112.999969,657.999723 Z" id="Fill-1" fill="#FFFFFF" opacity="0.152111235"></path>
                <path d="M522.215518,888.737774 C518.684593,884.998503 519.86013,880.761682 509.54975,881.010457 C499.243362,881.259268 496.883982,899.205439 496.883982,899.205439 C496.883982,899.205439 486.872611,897.709057 477.446311,907.181531 C468.028964,916.657553 457.722791,949.557022 443,956.790974 C443,956.790974 452.632214,958.262515 463.654409,956.264925 C465.02799,960.60839 468.213525,964.034917 470.101201,965.765516 L469.207931,965.765516 C469.207931,965.765516 460.962022,966.764348 459.196559,972 L504.255929,972 C504.255929,972 501.900541,965.765516 491.004443,965.765516 L486.432707,965.765516 C485.442518,964.098522 482.973405,959.829671 481.582889,956.293133 C480.761243,954.203112 481.410129,951.14638 482.3329,948.469818 C483.938288,947.239955 485.484672,945.903539 486.879288,944.328904 C501.900875,927.377797 516.918148,928.625313 517.508182,895.722204 C517.508182,895.722204 529.289439,895.473393 534,893.479406 C533.995793,893.475858 525.754091,892.477026 522.214429,888.737846 L522.215518,888.737774 Z M480.999969,965.999723 L473.998986,965.999723 C473.040779,964.314589 470.651416,959.999284 469.305812,956.424262 C469.142713,955.989493 469.053006,955.504429 469,954.997785 C470.73297,954.458818 472.453623,953.78333 474.149851,953 C474.492353,958.975326 478.72883,963.819076 481,966 L480.999969,965.999723 Z" id="Fill-1-Copy-6" fill="#FFFFFF" opacity="0.152111235"></path>
                <path d="M1025.21552,652.737774 C1021.68459,648.998503 1022.86013,644.761682 1012.54975,645.010457 C1002.24336,645.259268 999.883982,663.205439 999.883982,663.205439 C999.883982,663.205439 989.872611,661.709057 980.446311,671.181531 C971.028964,680.657553 960.722791,713.557022 946,720.790974 C946,720.790974 955.632214,722.262515 966.654409,720.264925 C968.02799,724.60839 971.213525,728.034917 973.101201,729.765516 L972.207931,729.765516 C972.207931,729.765516 963.962022,730.764348 962.196559,736 L1007.25593,736 C1007.25593,736 1004.90054,729.765516 994.004443,729.765516 L989.432707,729.765516 C988.442518,728.098522 985.973405,723.829671 984.582889,720.293133 C983.761243,718.203112 984.410129,715.14638 985.3329,712.469818 C986.938288,711.239955 988.484672,709.903539 989.879288,708.328904 C1004.90088,691.377797 1019.91815,692.625313 1020.50818,659.722204 C1020.50818,659.722204 1032.28944,659.473393 1037,657.479406 C1036.99579,657.475858 1028.75409,656.477026 1025.21443,652.737846 L1025.21552,652.737774 Z M983.999969,729.999723 L976.998986,729.999723 C976.040779,728.314589 973.651416,723.999284 972.305812,720.424262 C972.142713,719.989493 972.053006,719.504429 972,718.997785 C973.73297,718.458818 975.453623,717.78333 977.149851,717 C977.492353,722.975326 981.72883,727.819076 984,730 L983.999969,729.999723 Z" id="Fill-1-Copy-3" fill="#FFFFFF" opacity="0.152111235"></path>
                <g id="Group-3" transform="translate(33.000000, 189.000000)" fill="#FFFFFF">
                    <path d="M68.5378563,63.1256734 C64.293875,59.5638284 40.8156991,40.4024601 27.0817255,31.0479753 C12.056807,20.8130815 23.027628,17.7528521 23.027628,17.7528521 L26.5722001,18.9630577 C27.6558754,24.8336972 62.9297618,57.9157253 68.4682249,63.0307553 L68.0753378,62.4685854 L69.1978409,63.695929 L80.2847143,75.8056747 L80.5696616,76.1189483 L66.835688,56.8760647 L81.6915016,73.8822213 L66.9473194,54.6393376 C66.9473194,54.6393376 63.2343055,47.678788 55.1309737,38.0660141 C47.0271998,28.4576455 41.9927358,19.3943967 36.1260102,11.0000897 C36.1260102,11.0000897 33.9716354,-1.97644274 16.6369424,0.258856155 C16.6369424,0.258856155 8.86994149,2.61049561 7.85531186,3.50309912 C6.84071539,4.3999981 7.96756218,3.61467181 4.03011395,4.73472716 C0.0883109964,5.85473857 -1.25878115,6.41260203 1.32741914,6.85895871 C3.91792995,7.30526046 5.29077469,7.08211508 8.31731098,8.87157363 C11.3438473,10.6610322 13.8220636,14.0169247 14.1588366,16.9264276 C14.4955986,19.8359306 11.6806203,36.2802688 22.5993835,45.906094 C22.5993835,45.906094 32.0545601,55.192587 38.8069313,57.7675586 C39.0227999,57.8490959 41.9759358,60.1878599 40.3828125,62.6897973 C39.4804664,64.8140288 33.9671038,68.843653 33.9671038,68.843653 L35.3659222,71.0579689 L43.0855073,64.8183133 C43.0855073,64.8183133 43.8755921,65.0414587 46.7985213,63.2519452 C46.7985213,63.2519452 51.4138703,64.5951899 53.326414,63.8098197 C55.2390682,63.0287889 59.7421227,68.3973073 66.8360196,71.0836868 C73.9295849,73.7700663 84.058197,91 84.058197,91 L88,91 L68.5378563,63.1256734 Z M17.4582176,5.53983904 C17.4582176,4.1494649 18.5936523,3.02077463 19.9925812,3.02077463 C21.3915101,3.02077463 22.5269447,4.14935504 22.5269447,5.53983904 C22.5269447,6.93021319 21.3915101,8.05890345 19.9925812,8.05890345 C18.5936523,8.05890345 17.4582176,6.93032305 17.4582176,5.53983904 Z" id="Fill-1" opacity="0.152111235"></path>
                    <path d="M34.5323554,69 C34.5323554,69 33.0008727,70.5371031 23.0551213,72.5564346 C23.0551213,72.5564346 18.3850631,73.6315068 16.4328778,73.6846691 C15.4020917,73.7132805 16.5001946,74.5472175 16.7736728,74.5472175 C17.0471511,74.5472175 26.214818,72.4910491 34.5280579,74.015793 C34.5280579,74.015793 42.6186678,75.740848 44.3015862,77 L45,76.2927944 C45,76.2927944 38.3650472,74.6413086 36.7915589,73.292262 C36.4507638,73.002025 35.2600762,71.865565 35.8869943,71.1093621 C36.5096687,70.3653615 34.5322584,69.0000314 34.5322584,69.0000314 L34.5323554,69 Z" id="Fill-2" opacity="0.0944475446"></path>
                </g>
                <g id="Group-3-Copy" transform="translate(1004.000000, 50.000000)" fill="#FFFFFF">
                    <path d="M68.5378563,63.1256734 C64.293875,59.5638284 40.8156991,40.4024601 27.0817255,31.0479753 C12.056807,20.8130815 23.027628,17.7528521 23.027628,17.7528521 L26.5722001,18.9630577 C27.6558754,24.8336972 62.9297618,57.9157253 68.4682249,63.0307553 L68.0753378,62.4685854 L69.1978409,63.695929 L80.2847143,75.8056747 L80.5696616,76.1189483 L66.835688,56.8760647 L81.6915016,73.8822213 L66.9473194,54.6393376 C66.9473194,54.6393376 63.2343055,47.678788 55.1309737,38.0660141 C47.0271998,28.4576455 41.9927358,19.3943967 36.1260102,11.0000897 C36.1260102,11.0000897 33.9716354,-1.97644274 16.6369424,0.258856155 C16.6369424,0.258856155 8.86994149,2.61049561 7.85531186,3.50309912 C6.84071539,4.3999981 7.96756218,3.61467181 4.03011395,4.73472716 C0.0883109964,5.85473857 -1.25878115,6.41260203 1.32741914,6.85895871 C3.91792995,7.30526046 5.29077469,7.08211508 8.31731098,8.87157363 C11.3438473,10.6610322 13.8220636,14.0169247 14.1588366,16.9264276 C14.4955986,19.8359306 11.6806203,36.2802688 22.5993835,45.906094 C22.5993835,45.906094 32.0545601,55.192587 38.8069313,57.7675586 C39.0227999,57.8490959 41.9759358,60.1878599 40.3828125,62.6897973 C39.4804664,64.8140288 33.9671038,68.843653 33.9671038,68.843653 L35.3659222,71.0579689 L43.0855073,64.8183133 C43.0855073,64.8183133 43.8755921,65.0414587 46.7985213,63.2519452 C46.7985213,63.2519452 51.4138703,64.5951899 53.326414,63.8098197 C55.2390682,63.0287889 59.7421227,68.3973073 66.8360196,71.0836868 C73.9295849,73.7700663 84.058197,91 84.058197,91 L88,91 L68.5378563,63.1256734 Z M17.4582176,5.53983904 C17.4582176,4.1494649 18.5936523,3.02077463 19.9925812,3.02077463 C21.3915101,3.02077463 22.5269447,4.14935504 22.5269447,5.53983904 C22.5269447,6.93021319 21.3915101,8.05890345 19.9925812,8.05890345 C18.5936523,8.05890345 17.4582176,6.93032305 17.4582176,5.53983904 Z" id="Fill-1" opacity="0.152111235"></path>
                    <path d="M34.5323554,69 C34.5323554,69 33.0008727,70.5371031 23.0551213,72.5564346 C23.0551213,72.5564346 18.3850631,73.6315068 16.4328778,73.6846691 C15.4020917,73.7132805 16.5001946,74.5472175 16.7736728,74.5472175 C17.0471511,74.5472175 26.214818,72.4910491 34.5280579,74.015793 C34.5280579,74.015793 42.6186678,75.740848 44.3015862,77 L45,76.2927944 C45,76.2927944 38.3650472,74.6413086 36.7915589,73.292262 C36.4507638,73.002025 35.2600762,71.865565 35.8869943,71.1093621 C36.5096687,70.3653615 34.5322584,69.0000314 34.5322584,69.0000314 L34.5323554,69 Z" id="Fill-2" opacity="0.0944475446"></path>
                </g>
                <path d="M286.768571,793.675183 C282.138773,789.800209 256.526217,768.954325 241.5437,758.777468 C225.15288,747.642803 237.121049,744.313542 237.121049,744.313542 L240.987855,745.63014 C242.170046,752.016879 280.650649,788.007218 286.692609,793.571921 L286.264005,792.960329 L287.488554,794.295571 L299.583325,807.46991 L299.894176,807.810724 L284.91166,786.876158 L301.118002,805.377362 L285.033439,784.442796 C285.033439,784.442796 280.982879,776.87033 272.14288,766.412477 C263.3024,755.959417 257.810257,746.099399 251.410193,736.967131 C251.410193,736.967131 249.059966,722.849804 230.149392,725.281613 C230.149392,725.281613 221.6763,727.83999 220.569431,728.811064 C219.462599,729.786811 220.691886,728.932445 216.396488,730.150967 C212.096339,731.369441 210.626784,731.976347 213.448094,732.461944 C216.274105,732.947481 217.771754,732.704719 221.07343,734.651492 C224.375106,736.598266 227.078615,740.249182 227.446004,743.414465 C227.81338,746.579749 224.742495,764.469743 236.653873,774.941795 C236.653873,774.941795 246.968611,785.044683 254.334834,787.846025 C254.570327,787.934731 257.79193,790.4791 256.053977,793.200988 C255.0696,795.511965 249.055022,799.895842 249.055022,799.895842 L250.581006,802.304823 L259.002372,795.516627 C259.002372,795.516627 259.864282,795.759389 263.052932,793.812556 C263.052932,793.812556 268.087858,795.273888 270.17427,794.419474 C272.260802,793.569781 277.173225,799.410257 284.912021,802.332802 C292.650456,805.255347 303.699851,824 303.699851,824 L308,824 L286.768571,793.675183 Z M231.045328,731.026858 C231.045328,729.514253 232.283984,728.286337 233.810089,728.286337 C235.336193,728.286337 236.574849,729.514134 236.574849,731.026858 C236.574849,732.539463 235.336193,733.767378 233.810089,733.767378 C232.283984,733.767378 231.045328,732.539582 231.045328,731.026858 Z" id="Fill-1" fill="#FFFFFF" opacity="0.152111235"></path>
                <path d="M249.449496,801 C249.449496,801 247.759584,802.537103 236.784961,804.556435 C236.784961,804.556435 231.631794,805.631507 229.477658,805.684669 C228.340239,805.713281 229.551939,806.547218 229.853708,806.547218 C230.155477,806.547218 240.271523,804.491049 249.444754,806.015793 C249.444754,806.015793 258.372323,807.740848 260.229336,809 L261,808.292794 C261,808.292794 253.678673,806.641309 251.94241,805.292262 C251.56636,805.002025 250.252498,803.865565 250.94427,803.109362 C251.631359,802.365362 249.449389,801.000031 249.449389,801.000031 L249.449496,801 Z" id="Fill-2" fill="#FFFFFF" opacity="0.152111235"></path>
                <path d="M217.035,512.461 C216.83578,511.72272 216.61312,510.9805 216.3475,510.2462 C216.3475,510.2462 216.59359,511.08995 217.035,512.461 Z" id="Fill-1" fill="#000000"></path>
                <path d="M987.121601,523.574 C999.180601,516.4607 988.883301,503.676 988.883301,503.676 C984.695801,499.4885 980.512201,487.418 978.902801,482.414 C982.945801,497.383 973.590301,512.562 973.590301,512.562 C956.164301,507.2261 956.875301,477 956.875301,477 C952.965101,483.4023 960.430001,507.23 960.430001,507.23 C945.492001,488.378 927.711002,483.05 927.711002,483.05 C960.785001,502.253 963.629001,524.3 963.629001,524.3 C948.691001,536.394 927,515.7648 927,515.7648 C943.715001,547.057796 974.301001,533.5458 974.301001,533.5458 C985.684001,538.166897 994.574001,531.413 994.574001,531.413 C997.421701,532.12394 1000.617,531.05753 1000.617,531.05753 C993.726401,519.69453 987.512001,523.33093 987.121001,523.57313 L987.121601,523.574 Z" id="Fill-2" fill="#FFFFFF" opacity="0.152111235"></path>
                <path d="M621.121601,90.574 C633.180601,83.4607 622.883301,70.676 622.883301,70.676 C618.695801,66.4885 614.512201,54.418 612.902801,49.414 C616.945801,64.383 607.590301,79.562 607.590301,79.562 C590.164301,74.2261 590.875301,44 590.875301,44 C586.965101,50.4023 594.430001,74.23 594.430001,74.23 C579.492001,55.378 561.711002,50.05 561.711002,50.05 C594.785001,69.253 597.629001,91.3 597.629001,91.3 C582.691001,103.394 561,82.7648 561,82.7648 C577.715001,114.057796 608.301001,100.5458 608.301001,100.5458 C619.684001,105.166897 628.574001,98.413 628.574001,98.413 C631.421701,99.12394 634.617001,98.05753 634.617001,98.05753 C627.726401,86.69453 621.512001,90.33093 621.121001,90.57313 L621.121601,90.574 Z" id="Fill-2-Copy" fill="#FFFFFF" opacity="0.152111235"></path>
                <path d="M289.1242,467.416057 C289.1242,467.416057 291.131922,451.833143 314.490608,438.267136 C314.490608,438.267136 301.928363,442.033762 291.382386,455.350134 C291.382386,455.350134 296.655685,438.525237 293.889923,434 C293.889923,434 294.38984,455.350134 282.08543,459.124606 C282.08543,459.124606 274.917237,447.47784 278.747277,436.492225 C278.239309,438.169884 274.764077,449.357023 271.280814,452.849443 C271.280814,452.849443 263.999918,461.899091 272.538669,466.91596 C272.538669,466.91596 268.023329,463.907532 263,472.19093 C263,472.19093 265.257773,472.949107 267.265371,472.440957 C267.265371,472.440957 273.546596,477.21583 281.58545,473.949239 C281.58545,473.949239 303.195094,483.498985 315,461.383013 C315,461.374939 299.671994,475.949627 289.12581,467.416181 L289.1242,467.416057 Z" id="Fill-3" fill="#FFFFFF" opacity="0.0944475446"></path>
                <path d="M33.1242002,543.416057 C33.1242002,543.416057 35.1319218,527.833143 58.4906077,514.267136 C58.4906077,514.267136 45.9283635,518.033762 35.3823864,531.350134 C35.3823864,531.350134 40.6556846,514.525237 37.8899226,510 C37.8899226,510 38.3898404,531.350134 26.0854298,535.124606 C26.0854298,535.124606 18.9172369,523.47784 22.7472775,512.492225 C22.2393095,514.169884 18.7640765,525.357023 15.2808141,528.849443 C15.2808141,528.849443 7.99991823,537.899091 16.5386692,542.91596 C16.5386692,542.91596 12.0233289,539.907532 7,548.19093 C7,548.19093 9.25777333,548.949107 11.265371,548.440957 C11.265371,548.440957 17.5465963,553.21583 25.5854501,549.949239 C25.5854501,549.949239 47.1950945,559.498985 59,537.383013 C59,537.374939 43.6719938,551.949627 33.1258103,543.416181 L33.1242002,543.416057 Z" id="Fill-3-Copy-8" fill="#FFFFFF" opacity="0.0944475446"></path>
                <path d="M743.1242,880.416057 C743.1242,880.416057 745.131922,864.833143 768.490608,851.267136 C768.490608,851.267136 755.928363,855.033762 745.382386,868.350134 C745.382386,868.350134 750.655685,851.525237 747.889923,847 C747.889923,847 748.38984,868.350134 736.08543,872.124606 C736.08543,872.124606 728.917237,860.47784 732.747277,849.492225 C732.239309,851.169884 728.764077,862.357023 725.280814,865.849443 C725.280814,865.849443 717.999918,874.899091 726.538669,879.91596 C726.538669,879.91596 722.023329,876.907532 717,885.19093 C717,885.19093 719.257773,885.949107 721.265371,885.440957 C721.265371,885.440957 727.546596,890.21583 735.58545,886.949239 C735.58545,886.949239 757.195094,896.498985 769,874.383013 C769,874.374939 753.671994,888.949627 743.12581,880.416181 L743.1242,880.416057 Z" id="Fill-3-Copy-3" fill="#FFFFFF" opacity="0.0944475446"></path>
                <path d="M212.1242,214.416057 C212.1242,214.416057 214.131922,198.833143 237.490608,185.267136 C237.490608,185.267136 224.928363,189.033762 214.382386,202.350134 C214.382386,202.350134 219.655685,185.525237 216.889923,181 C216.889923,181 217.38984,202.350134 205.08543,206.124606 C205.08543,206.124606 197.917237,194.47784 201.747277,183.492225 C201.239309,185.169884 197.764077,196.357023 194.280814,199.849443 C194.280814,199.849443 186.999918,208.899091 195.538669,213.91596 C195.538669,213.91596 191.023329,210.907532 186,219.19093 C186,219.19093 188.257773,219.949107 190.265371,219.440957 C190.265371,219.440957 196.546596,224.21583 204.58545,220.949239 C204.58545,220.949239 226.195094,230.498985 238,208.383013 C238,208.374939 222.671994,222.949627 212.12581,214.416181 L212.1242,214.416057 Z" id="Fill-3-Copy-7" fill="#FFFFFF" opacity="0.0944475446"></path>
                <path d="M227.781,487.27 C227.80053,487.20359 227.81615,487.15672 227.81615,487.15672 C227.80053,487.19578 227.79272,487.23485 227.781,487.27 Z" id="Fill-4" fill="#000000"></path>
                <path d="M121.035,573.461 C120.83578,572.72272 120.61312,571.9805 120.3475,571.2462 C120.3475,571.2462 120.59359,572.08995 121.035,573.461 Z" id="Fill-1" fill="#000000"></path>
                <path d="M375.121601,268.574 C387.180601,261.4607 376.883301,248.676 376.883301,248.676 C372.695801,244.4885 368.512201,232.418 366.902801,227.414 C370.945801,242.383 361.590301,257.562 361.590301,257.562 C344.164301,252.2261 344.875301,222 344.875301,222 C340.965101,228.4023 348.430001,252.23 348.430001,252.23 C333.492001,233.378 315.711002,228.05 315.711002,228.05 C348.785001,247.253 351.629001,269.3 351.629001,269.3 C336.691001,281.394 315,260.7648 315,260.7648 C331.715001,292.057796 362.301001,278.5458 362.301001,278.5458 C373.684001,283.166897 382.574001,276.413 382.574001,276.413 C385.421701,277.12394 388.617001,276.05753 388.617001,276.05753 C381.726401,264.69453 375.512001,268.33093 375.121001,268.57313 L375.121601,268.574 Z" id="Fill-2" fill="#FFFFFF" opacity="0.152111235"></path>
                <path d="M140.664804,432.554742 C140.664804,432.554742 143.328896,411.777524 174.324076,393.689515 C174.324076,393.689515 157.654944,398.711683 143.661243,416.466845 C143.661243,416.466845 150.658505,394.03365 146.988551,388 C146.988551,388 147.651904,416.466845 131.324897,421.499475 C131.324897,421.499475 121.813257,405.970453 126.895426,391.322967 C126.221391,393.559845 121.610025,408.476031 116.988003,413.13259 C116.988003,413.13259 107.326815,425.198788 118.65708,431.887946 C118.65708,431.887946 112.665571,427.876709 106,438.921239 C106,438.921239 108.995892,439.932143 111.659819,439.25461 C111.659819,439.25461 119.994522,445.621107 130.661463,441.265652 C130.661463,441.265652 159.335798,453.998646 175,424.510684 C175,424.499919 154.660915,443.932836 140.666941,432.554908 L140.664804,432.554742 Z" id="Fill-3" fill="#FFFFFF" opacity="0.152111235" transform="translate(140.500000, 416.000000) scale(1, -1) translate(-140.500000, -416.000000) "></path>
                <path d="M844.664804,137.554742 C844.664804,137.554742 847.328896,116.777524 878.324076,98.6895147 C878.324076,98.6895147 861.654944,103.711683 847.661243,121.466845 C847.661243,121.466845 854.658505,99.0336497 850.988551,93 C850.988551,93 851.651904,121.466845 835.324897,126.499475 C835.324897,126.499475 825.813257,110.970453 830.895426,96.3229673 C830.221391,98.5598447 825.610025,113.476031 820.988003,118.13259 C820.988003,118.13259 811.326815,130.198788 822.65708,136.887946 C822.65708,136.887946 816.665571,132.876709 810,143.921239 C810,143.921239 812.995892,144.932143 815.659819,144.25461 C815.659819,144.25461 823.994522,150.621107 834.661463,146.265652 C834.661463,146.265652 863.335798,158.998646 879,129.510684 C879,129.499919 858.660915,148.932836 844.666941,137.554908 L844.664804,137.554742 Z" id="Fill-3-Copy" fill="#FFFFFF" opacity="0.152111235" transform="translate(844.500000, 121.000000) scale(1, -1) translate(-844.500000, -121.000000) "></path>
                <path d="M131.781,548.27 C131.80053,548.20359 131.81615,548.15672 131.81615,548.15672 C131.80053,548.19578 131.79272,548.23485 131.781,548.27 Z" id="Fill-4" fill="#000000"></path>
                <path d="M374.564102,602.60323 L376,602.300691 L374.942288,601.238873 C374.487285,600.704979 362.536263,588.781645 349.148465,588.781645 C346.046127,588.781645 342.642449,588.85876 339.921474,589.01003 C339.844657,588.85876 339.693972,588.630375 339.466471,588.55326 L326.530984,583.086841 L326.07893,580.963128 L323.204109,582.404601 L323.204109,578 L321.842033,579.290218 C321.540663,579.592757 313.521932,587.185516 311.480479,592.198476 C310.422768,594.553549 310.49659,597.211132 311.631164,599.945708 L308.076817,604.804072 L308.076817,604.881188 C308.076817,604.958303 308,604.958303 308,605.032458 L308,605.183727 L308,605.260843 L308,605.337958 L308,605.489228 C308,605.566343 308,605.566343 308.076817,605.640497 C308.076817,605.717613 308.153634,605.717613 308.153634,605.791767 C308.153634,605.868882 308.230452,605.868882 308.304319,605.943036 L308.381136,606.020152 C308.381136,606.020152 308.457953,606.020152 308.457953,606.097267 C308.457953,606.097267 308.534771,606.097267 308.534771,606.174383 C308.611588,606.174383 308.762272,606.251498 308.83614,606.251498 L315.794167,606.251498 C316.55054,607.087953 317.306912,607.847262 318.213955,608.68068 C319.348514,609.742498 320.633742,611.035754 321.918971,612.400081 C326.002173,616.653428 330.767776,621.662894 336.969276,623.71227 L328.196865,635.632666 C327.895495,636.012321 328.04618,636.54323 328.347549,636.77163 C328.498234,636.848746 328.648918,636.9229 328.802553,636.9229 C329.030055,636.9229 329.331424,636.77163 329.482108,636.620361 L331.222371,634.191178 L333.792828,636.771615 C333.943512,636.922885 334.171014,637 334.398516,637 C334.626018,637 334.85352,636.922885 335.004204,636.771615 C335.305573,636.469076 335.305573,635.93516 335.004204,635.632651 L332.280052,632.897923 L338.632373,624.165866 C339.994449,624.468406 341.356525,624.696791 342.792423,624.696791 C343.471979,624.696791 344.077652,624.619675 344.760202,624.545521 L336.517252,635.632955 C336.215883,636.012609 336.366568,636.543518 336.667937,636.771919 C336.818621,636.849034 336.969306,636.923188 337.12294,636.923188 C337.350442,636.923188 337.651811,636.771919 337.802496,636.620649 L339.693428,634.040213 L342.340732,636.697795 C342.491417,636.849065 342.718919,636.92618 342.94642,636.92618 C343.173922,636.92618 343.401424,636.849065 343.552109,636.697795 C343.853478,636.395256 343.853478,635.86134 343.552109,635.558831 L340.754135,632.749994 L347.257201,623.709658 C350.888395,622.268185 354.365894,619.382203 357.240564,615.888013 L362.006318,615.888013 C364.881139,615.888013 367.528444,612.471122 368.134147,611.711813 C370.704604,610.875357 372.749231,607.992412 373.05057,607.612757 L373.957612,606.322539 L363.596062,606.322539 C363.823564,605.865769 364.051065,605.411975 364.20175,605.032321 C368.890656,603.967541 372.974161,602.982793 374.5633,602.603139 L374.564102,602.60323 Z M323.354094,594.052177 C322.696502,595.082187 321.250325,594.998357 321.250325,594.998357 C320.790524,594.481668 320.988314,593.193262 321.645906,592.163252 C322.303498,591.133241 323.289886,590.703784 323.749675,591.217071 C324.209476,591.73376 324.011686,593.022166 323.354094,594.052177 Z" id="Fill-1" fill="#FFFFFF" opacity="0.152111235"></path>
                <path d="M120.310708,58.1902726 L122,57.8313278 L120.755633,56.5715437 C120.220335,55.9381111 106.160309,41.791782 90.409959,41.791782 C86.7601491,41.791782 82.7558228,41.8832749 79.5546754,42.0627473 C79.4643022,41.8832749 79.2870262,41.6123096 79.0193771,41.5208167 L63.8011575,35.0352345 L63.2693296,32.5155761 L59.8871866,34.225798 L59.8871866,29 L58.2847443,30.5307675 C57.9301923,30.8897123 48.4963911,39.8980698 46.0946817,45.8456492 C44.850315,48.6398043 44.9371644,51.7928682 46.2719576,55.0372808 L42.0903732,60.8014419 L42.0903732,60.8929348 C42.0903732,60.9844277 42,60.9844277 42,61.0724072 L42,61.2518796 L42,61.3433725 L42,61.4348654 L42,61.6143378 C42,61.7058307 42,61.7058307 42.0903732,61.7938102 C42.0903732,61.8853031 42.1807464,61.8853031 42.1807464,61.9732826 C42.1807464,62.0647755 42.2711196,62.0647755 42.3580224,62.152755 L42.4483956,62.2442479 C42.4483956,62.2442479 42.5387688,62.2442479 42.5387688,62.3357408 C42.5387688,62.3357408 42.6291419,62.3357408 42.6291419,62.4272337 C42.7195151,62.4272337 42.8967911,62.5187266 42.9836939,62.5187266 L51.1696082,62.5187266 C52.0594585,63.511131 52.9493087,64.4120064 54.0164172,65.4008072 C55.3511926,66.6605913 56.8632262,68.1949623 58.3752598,69.8136552 C63.1790276,74.8599988 68.7856183,80.8034341 76.0815008,83.2348968 L65.7610172,97.3777396 C65.4064652,97.8281773 65.5837412,98.4580694 65.9382932,98.7290527 C66.1155691,98.8205456 66.2928451,98.9085251 66.4735915,98.9085251 C66.7412407,98.9085251 67.0957926,98.7290527 67.2730686,98.5495803 L69.3204361,95.6674998 L72.3445033,98.7290347 C72.5217793,98.9085071 72.7894285,99 73.0570776,99 C73.3247268,99 73.592376,98.9085071 73.7696519,98.7290347 C74.1242039,98.3700899 74.1242039,97.7366304 73.7696519,97.3777216 L70.5647672,94.1331288 L78.0380858,83.7730618 C79.6405282,84.1320066 81.2429705,84.4029719 82.9322623,84.4029719 C83.7317394,84.4029719 84.4442959,84.311479 85.2472968,84.2234995 L75.5497084,97.378082 C75.1951565,97.8285197 75.3724325,98.4584117 75.7269844,98.729395 C75.9042604,98.820888 76.0815364,98.9088674 76.2622827,98.9088674 C76.5299319,98.9088674 76.8844839,98.729395 77.0617598,98.5499227 L79.2863855,95.4883877 L82.4008615,98.6414516 C82.5781375,98.820924 82.8457867,98.9124169 83.1134358,98.9124169 C83.381085,98.9124169 83.6487342,98.820924 83.8260102,98.6414516 C84.1805621,98.2825068 84.1805621,97.6490473 83.8260102,97.2901385 L80.534276,93.9576202 L88.1849418,83.2317978 C92.456935,81.521576 96.5481107,78.0975288 99.9300757,73.9518804 L105.536844,73.9518804 C108.918987,73.9518804 112.033463,69.8979411 112.746055,68.9970657 C115.770123,68.0046614 118.175566,64.5842177 118.530082,64.13378 L119.597191,62.6030125 L107.407132,62.6030125 C107.674781,62.0610819 107.94243,61.5226828 108.119706,61.0722451 C113.636066,59.8089475 118.44019,58.6406022 120.309765,58.1901645 L120.310708,58.1902726 Z M60.1387915,49.0521768 C59.2620022,50.0821873 57.3337672,49.9983572 57.3337672,49.9983572 C56.7206985,49.4816685 56.9844192,48.1932621 57.8612085,47.1632516 C58.7379978,46.133241 60.0531818,45.7037837 60.6662328,46.2170711 C61.2793015,46.7337598 61.0155808,48.0221663 60.1387915,49.0521768 Z" id="Fill-1-Copy" fill="#FFFFFF" opacity="0.152111235" transform="translate(82.000000, 64.000000) scale(-1, 1) translate(-82.000000, -64.000000) "></path>
                <path d="M1140.31071,405.190273 L1142,404.831328 L1140.75563,403.571544 C1140.22034,402.938111 1126.16031,388.791782 1110.40996,388.791782 C1106.76015,388.791782 1102.75582,388.883275 1099.55468,389.062747 C1099.4643,388.883275 1099.28703,388.61231 1099.01938,388.520817 L1083.80116,382.035235 L1083.26933,379.515576 L1079.88719,381.225798 L1079.88719,376 L1078.28474,377.530767 C1077.93019,377.889712 1068.49639,386.89807 1066.09468,392.845649 C1064.85032,395.639804 1064.93716,398.792868 1066.27196,402.037281 L1062.09037,407.801442 L1062.09037,407.892935 C1062.09037,407.984428 1062,407.984428 1062,408.072407 L1062,408.25188 L1062,408.343373 L1062,408.434865 L1062,408.614338 C1062,408.705831 1062,408.705831 1062.09037,408.79381 C1062.09037,408.885303 1062.18075,408.885303 1062.18075,408.973283 C1062.18075,409.064776 1062.27112,409.064776 1062.35802,409.152755 L1062.4484,409.244248 C1062.4484,409.244248 1062.53877,409.244248 1062.53877,409.335741 C1062.53877,409.335741 1062.62914,409.335741 1062.62914,409.427234 C1062.71952,409.427234 1062.89679,409.518727 1062.98369,409.518727 L1071.16961,409.518727 C1072.05946,410.511131 1072.94931,411.412006 1074.01642,412.400807 C1075.35119,413.660591 1076.86323,415.194962 1078.37526,416.813655 C1083.17903,421.859999 1088.78562,427.803434 1096.0815,430.234897 L1085.76102,444.37774 C1085.40647,444.828177 1085.58374,445.458069 1085.93829,445.729053 C1086.11557,445.820546 1086.29285,445.908525 1086.47359,445.908525 C1086.74124,445.908525 1087.09579,445.729053 1087.27307,445.54958 L1089.32044,442.6675 L1092.3445,445.729035 C1092.52178,445.908507 1092.78943,446 1093.05708,446 C1093.32473,446 1093.59238,445.908507 1093.76965,445.729035 C1094.1242,445.37009 1094.1242,444.73663 1093.76965,444.377722 L1090.56477,441.133129 L1098.03809,430.773062 C1099.64053,431.132007 1101.24297,431.402972 1102.93226,431.402972 C1103.73174,431.402972 1104.4443,431.311479 1105.2473,431.223499 L1095.54971,444.378082 C1095.19516,444.82852 1095.37243,445.458412 1095.72698,445.729395 C1095.90426,445.820888 1096.08154,445.908867 1096.26228,445.908867 C1096.52993,445.908867 1096.88448,445.729395 1097.06176,445.549923 L1099.28639,442.488388 L1102.40086,445.641452 C1102.57814,445.820924 1102.84579,445.912417 1103.11344,445.912417 C1103.38109,445.912417 1103.64873,445.820924 1103.82601,445.641452 C1104.18056,445.282507 1104.18056,444.649047 1103.82601,444.290139 L1100.53428,440.95762 L1108.18494,430.231798 C1112.45694,428.521576 1116.54811,425.097529 1119.93008,420.95188 L1125.53684,420.95188 C1128.91899,420.95188 1132.03346,416.897941 1132.74606,415.997066 C1135.77012,415.004661 1138.17557,411.584218 1138.53008,411.13378 L1139.59719,409.603013 L1127.40713,409.603013 C1127.67478,409.061082 1127.94243,408.522683 1128.11971,408.072245 C1133.63607,406.808947 1138.44019,405.640602 1140.30976,405.190164 L1140.31071,405.190273 Z M1080.13879,396.052177 C1079.262,397.082187 1077.33377,396.998357 1077.33377,396.998357 C1076.7207,396.481668 1076.98442,395.193262 1077.86121,394.163252 C1078.738,393.133241 1080.05318,392.703784 1080.66623,393.217071 C1081.2793,393.73376 1081.01558,395.022166 1080.13879,396.052177 Z" id="Fill-1-Copy-5" fill="#FFFFFF" opacity="0.152111235" transform="translate(1102.000000, 411.000000) scale(-1, 1) translate(-1102.000000, -411.000000) "></path>
                <path d="M984.310708,897.190273 L986,896.831328 L984.755633,895.571544 C984.220335,894.938111 970.160309,880.791782 954.409959,880.791782 C950.760149,880.791782 946.755823,880.883275 943.554675,881.062747 C943.464302,880.883275 943.287026,880.61231 943.019377,880.520817 L927.801158,874.035235 L927.26933,871.515576 L923.887187,873.225798 L923.887187,868 L922.284744,869.530767 C921.930192,869.889712 912.496391,878.89807 910.094682,884.845649 C908.850315,887.639804 908.937164,890.792868 910.271958,894.037281 L906.090373,899.801442 L906.090373,899.892935 C906.090373,899.984428 906,899.984428 906,900.072407 L906,900.25188 L906,900.343373 L906,900.434865 L906,900.614338 C906,900.705831 906,900.705831 906.090373,900.79381 C906.090373,900.885303 906.180746,900.885303 906.180746,900.973283 C906.180746,901.064776 906.27112,901.064776 906.358022,901.152755 L906.448396,901.244248 C906.448396,901.244248 906.538769,901.244248 906.538769,901.335741 C906.538769,901.335741 906.629142,901.335741 906.629142,901.427234 C906.719515,901.427234 906.896791,901.518727 906.983694,901.518727 L915.169608,901.518727 C916.059458,902.511131 916.949309,903.412006 918.016417,904.400807 C919.351193,905.660591 920.863226,907.194962 922.37526,908.813655 C927.179028,913.859999 932.785618,919.803434 940.081501,922.234897 L929.761017,936.37774 C929.406465,936.828177 929.583741,937.458069 929.938293,937.729053 C930.115569,937.820546 930.292845,937.908525 930.473591,937.908525 C930.741241,937.908525 931.095793,937.729053 931.273069,937.54958 L933.320436,934.6675 L936.344503,937.729035 C936.521779,937.908507 936.789428,938 937.057078,938 C937.324727,938 937.592376,937.908507 937.769652,937.729035 C938.124204,937.37009 938.124204,936.73663 937.769652,936.377722 L934.564767,933.133129 L942.038086,922.773062 C943.640528,923.132007 945.242971,923.402972 946.932262,923.402972 C947.731739,923.402972 948.444296,923.311479 949.247297,923.223499 L939.549708,936.378082 C939.195156,936.82852 939.372432,937.458412 939.726984,937.729395 C939.90426,937.820888 940.081536,937.908867 940.262283,937.908867 C940.529932,937.908867 940.884484,937.729395 941.06176,937.549923 L943.286386,934.488388 L946.400862,937.641452 C946.578138,937.820924 946.845787,937.912417 947.113436,937.912417 C947.381085,937.912417 947.648734,937.820924 947.82601,937.641452 C948.180562,937.282507 948.180562,936.649047 947.82601,936.290139 L944.534276,932.95762 L952.184942,922.231798 C956.456935,920.521576 960.548111,917.097529 963.930076,912.95188 L969.536844,912.95188 C972.918987,912.95188 976.033463,908.897941 976.746055,907.997066 C979.770123,907.004661 982.175566,903.584218 982.530082,903.13378 L983.597191,901.603013 L971.407132,901.603013 C971.674781,901.061082 971.94243,900.522683 972.119706,900.072245 C977.636066,898.808947 982.44019,897.640602 984.309765,897.190164 L984.310708,897.190273 Z M924.138791,888.052177 C923.262002,889.082187 921.333767,888.998357 921.333767,888.998357 C920.720699,888.481668 920.984419,887.193262 921.861209,886.163252 C922.737998,885.133241 924.053182,884.703784 924.666233,885.217071 C925.279301,885.73376 925.015581,887.022166 924.138791,888.052177 Z" id="Fill-1-Copy-4" fill="#FFFFFF" opacity="0.152111235" transform="translate(946.000000, 903.000000) scale(-1, 1) translate(-946.000000, -903.000000) "></path>
                <path d="M1048.31071,264.190273 L1050,263.831328 L1048.75563,262.571544 C1048.22034,261.938111 1034.16031,247.791782 1018.40996,247.791782 C1014.76015,247.791782 1010.75582,247.883275 1007.55468,248.062747 C1007.4643,247.883275 1007.28703,247.61231 1007.01938,247.520817 L991.801158,241.035235 L991.26933,238.515576 L987.887187,240.225798 L987.887187,235 L986.284744,236.530767 C985.930192,236.889712 976.496391,245.89807 974.094682,251.845649 C972.850315,254.639804 972.937164,257.792868 974.271958,261.037281 L970.090373,266.801442 L970.090373,266.892935 C970.090373,266.984428 970,266.984428 970,267.072407 L970,267.25188 L970,267.343373 L970,267.434865 L970,267.614338 C970,267.705831 970,267.705831 970.090373,267.79381 C970.090373,267.885303 970.180746,267.885303 970.180746,267.973283 C970.180746,268.064776 970.27112,268.064776 970.358022,268.152755 L970.448396,268.244248 C970.448396,268.244248 970.538769,268.244248 970.538769,268.335741 C970.538769,268.335741 970.629142,268.335741 970.629142,268.427234 C970.719515,268.427234 970.896791,268.518727 970.983694,268.518727 L979.169608,268.518727 C980.059458,269.511131 980.949309,270.412006 982.016417,271.400807 C983.351193,272.660591 984.863226,274.194962 986.37526,275.813655 C991.179028,280.859999 996.785618,286.803434 1004.0815,289.234897 L993.761017,303.37774 C993.406465,303.828177 993.583741,304.458069 993.938293,304.729053 C994.115569,304.820546 994.292845,304.908525 994.473591,304.908525 C994.741241,304.908525 995.095793,304.729053 995.273069,304.54958 L997.320436,301.6675 L1000.3445,304.729035 C1000.52178,304.908507 1000.78943,305 1001.05708,305 C1001.32473,305 1001.59238,304.908507 1001.76965,304.729035 C1002.1242,304.37009 1002.1242,303.73663 1001.76965,303.377722 L998.564767,300.133129 L1006.03809,289.773062 C1007.64053,290.132007 1009.24297,290.402972 1010.93226,290.402972 C1011.73174,290.402972 1012.4443,290.311479 1013.2473,290.223499 L1003.54971,303.378082 C1003.19516,303.82852 1003.37243,304.458412 1003.72698,304.729395 C1003.90426,304.820888 1004.08154,304.908867 1004.26228,304.908867 C1004.52993,304.908867 1004.88448,304.729395 1005.06176,304.549923 L1007.28639,301.488388 L1010.40086,304.641452 C1010.57814,304.820924 1010.84579,304.912417 1011.11344,304.912417 C1011.38109,304.912417 1011.64873,304.820924 1011.82601,304.641452 C1012.18056,304.282507 1012.18056,303.649047 1011.82601,303.290139 L1008.53428,299.95762 L1016.18494,289.231798 C1020.45694,287.521576 1024.54811,284.097529 1027.93008,279.95188 L1033.53684,279.95188 C1036.91899,279.95188 1040.03346,275.897941 1040.74606,274.997066 C1043.77012,274.004661 1046.17557,270.584218 1046.53008,270.13378 L1047.59719,268.603013 L1035.40713,268.603013 C1035.67478,268.061082 1035.94243,267.522683 1036.11971,267.072245 C1041.63607,265.808947 1046.44019,264.640602 1048.30976,264.190164 L1048.31071,264.190273 Z M988.138791,255.052177 C987.262002,256.082187 985.333767,255.998357 985.333767,255.998357 C984.720699,255.481668 984.984419,254.193262 985.861209,253.163252 C986.737998,252.133241 988.053182,251.703784 988.666233,252.217071 C989.279301,252.73376 989.015581,254.022166 988.138791,255.052177 Z" id="Fill-1-Copy-2" fill="#FFFFFF" opacity="0.152111235" transform="translate(1010.000000, 270.000000) scale(-1, 1) translate(-1010.000000, -270.000000) "></path>
                <path d="M410.506728,73.8702383 L384.945203,64.8849894 L391.295122,64.8849894 L354.87354,51.3959561 C354.845764,51.384853 354.817989,51.3737357 354.790213,51.3626327 C351.462507,49.7410997 352.79029,47.836232 353.584655,47.0420988 C353.662436,46.9643489 353.756872,46.9088192 353.86799,46.8754958 C354.051328,46.8144075 354.262427,46.7477748 354.506878,46.6644662 C355.773534,46.242407 356.501255,45.7092886 356.917965,45.2040061 C357.373515,44.6486815 356.834623,43.8267835 356.145743,44.0322544 C349.606811,45.987022 337.245887,44.7097555 337.245887,44.7097555 C336.173663,44.4320932 334.479246,45.3483887 332.718114,46.6756119 C332.279231,47.008818 331.834788,47.3642303 331.390345,47.7307457 C330.895897,48.1472462 330.401463,48.5804085 329.929301,49.0135565 C328.579303,50.2519409 327.36817,51.4848092 326.579266,52.312209 C325.990382,52.9286218 325.634828,53.3284606 325.634828,53.3284606 C325.484826,53.3839902 325.334825,53.4450785 325.190385,53.5006081 C324.029272,53.9670938 323.179226,54.4169036 322.551459,54.8223011 L322.490346,54.861169 C322.290354,54.9944486 322.112577,55.1221695 321.957015,55.2443461 C321.757022,55.399846 321.595899,55.5442287 321.45702,55.6830528 C320.901473,56.2383773 320.851468,56.5882452 320.851468,56.5882452 C320.562587,58.0431609 318.862638,59.5314853 317.351531,60.5977222 C316.58487,61.1363992 315.868158,61.5695473 315.407075,61.8305621 C315.223737,61.9360769 315.007076,61.9527386 314.807069,61.8805473 C310.745926,60.4811043 296.501701,56.2105841 289.123232,62.2192978 C289.073231,62.2581657 289.028787,62.3025922 288.989899,62.3581361 C288.878787,62.5025187 288.617676,62.8468279 288.295459,63.3133137 C286.495499,65.190317 285.712142,67.339424 285.373227,69.0276323 C285.34545,69.172015 285.267671,69.3052946 285.162113,69.4052507 C283.273265,71.2211231 283.034333,74.0256103 283.001053,74.6920794 C282.995498,74.7864769 283.012163,74.8864473 283.045497,74.9753004 C283.934383,77.4909085 285.034327,78.4461145 285.889933,78.7848935 C286.37326,78.9792614 286.906591,78.6071874 286.884376,78.085172 C286.82882,76.5135389 289.789968,74.1089616 292.067652,72.4929731 C292.162087,72.4263262 292.273205,72.3818996 292.389869,72.3652379 C292.573207,72.3374731 292.756531,72.3152669 292.94543,72.2819435 C293.056534,72.2652818 293.178759,72.2708404 293.289877,72.3041496 C294.912059,72.7928415 296.189922,73.3925926 297.21207,74.0701222 C297.223178,74.0756808 297.234285,74.0867839 297.245407,74.0923425 C297.373179,74.2034018 298.050966,74.7976085 299.017633,75.8138175 C303.689904,80.7062807 314.822742,95.0117671 300.22319,108.072457 C300.162078,108.261267 300.028745,108.416767 299.850967,108.50562 C299.167634,108.84437 298.462086,109.088723 297.845356,109.260871 L297.856463,109.4719 C296.662027,109.477459 295.02312,109.799548 295.03976,111.52661 C295.045307,112.254096 296.028643,112.476229 296.406426,111.859816 C296.75642,111.28783 297.256429,110.788021 297.928626,110.704726 L297.934173,110.815785 C298.82862,111.326698 300.467428,110.482579 301.428563,109.882828 L301.711897,109.955034 C299.411886,112.715023 297.384088,114.642069 297.050862,114.952983 C297.017539,114.986293 296.984202,115.008513 296.945319,115.036278 C296.728658,115.169557 296.528652,115.302837 296.345314,115.430558 L296.473086,116.07475 C296.506423,116.235794 296.478647,116.396839 296.406426,116.54678 C295.973091,117.479737 295.945315,118.545903 297.189756,119.428889 C297.778639,119.84539 298.57309,119.278948 298.328639,118.601447 C298.200853,118.251593 298.106418,117.87396 298.073081,117.501886 C298.050852,117.240886 298.200853,117.007636 298.406421,116.846592 C298.761975,116.568929 298.828649,116.080237 298.828649,116.080237 C298.961982,115.869208 299.12309,115.635972 299.306429,115.391619 C300.534201,113.714499 302.600854,111.432042 302.600854,111.432042 C304.111961,109.621714 303.778622,111.948499 303.778622,111.948499 C303.106396,113.220206 302.634177,114.275312 302.317577,115.158298 C300.395307,120.450671 304.023101,119.373203 304.023101,119.373203 C301.895321,118.468011 302.773099,117.362849 303.08977,117.04639 C303.145322,116.99086 303.184206,116.963096 303.184206,116.963096 C304.689766,116.685433 305.261924,113.470104 305.473123,111.237688 L305.473123,111.215468 C305.489792,111.0211 305.50646,110.837849 305.523129,110.665688 C305.728682,109.499495 306.595353,109.166274 307.017595,109.077421 C307.095376,109.066318 307.167597,109.055215 307.245378,109.044098 L307.256485,109.044098 C307.795378,108.9497 308.32871,108.788642 308.812107,108.616494 C313.100948,107.094903 313.739808,108.122244 313.828697,108.566523 C313.834258,108.622053 313.839805,108.672038 313.839805,108.727568 L313.839805,108.744229 L313.845365,108.744229 C314.20092,113.186883 317.689763,110.776761 319.15095,109.55501 C319.495397,109.266245 320.01206,109.355098 320.245389,109.738275 C331.173144,127.508889 326.539842,108.877509 328.950928,113.053561 C331.395437,117.285241 331.395437,116.635406 335.789806,119.240009 C338.428732,120.800553 338.717584,119.140053 338.53426,117.562889 C338.456479,116.90205 339.25093,116.507756 339.756486,116.940918 C344.334321,120.861542 346.723079,122.821854 348.328621,122.821854 C350.117487,122.821854 343.284156,115.497091 345.400843,117.612789 C346.53418,118.745673 349.850821,120.572663 352.695257,122.033265 C353.45081,122.422001 354.150755,121.4335 353.539699,120.844852 C351.184221,118.590258 349.511977,116.729888 355.00629,120.706013 C357.911882,122.810765 359.984053,124.110152 361.46188,124.904285 C362.25077,125.326345 362.96744,124.24899 362.272985,123.688107 C355.789662,118.379101 360.406324,120.27288 363.923043,121.972177 L364.317481,122.205413 L364.534141,122.272059 C364.534141,122.272059 366.967414,123.504899 364.967477,120.750468 C364.967477,120.750468 333.217881,98.1761021 331.228198,91.4730265 C331.255974,91.212026 331.222637,90.9232464 331.139309,90.6178193 C331.14487,90.606702 331.133749,90.5900403 331.139309,90.5789372 L331.128202,90.5900403 C330.555987,88.5796863 327.839323,85.647535 325.21149,82.4711444 C322.117028,78.7282266 327.000356,74.6631631 330.42264,83.2819251 C333.839234,91.9062173 334.000371,89.4683733 339.378204,93.5332947 C344.750349,97.5983581 340.517088,89.9514497 341.983708,92.2338221 C343.450299,94.5107353 342.961483,89.1405979 345.400302,91.7451302 C347.844811,94.3495914 350.772447,101.346806 350.611452,97.4428155 C350.450343,93.5388249 353.705914,99.886346 354.678142,95.6546653 C354.76147,95.2936943 354.86148,95.0215907 354.961476,94.8105611 C356.105921,92.5615122 358.405946,98.1925222 358.255902,94.0275452 C358.183682,91.9728357 358.305907,91.0787606 358.767019,90.89551 C359.322566,90.6678187 360.378107,91.4952754 362.161427,92.5670851 C365.417026,94.5218526 363.139201,88.8241673 365.094751,90.7789348 C366.361407,92.0450839 366.055858,90.5790225 366.389197,89.7460214 C366.572535,89.290653 366.944758,89.0185351 367.861477,89.4794622 C370.466981,90.7789348 367.861477,86.0642345 370.955939,87.8523848 C373.250404,89.1796222 371.689264,85.8475752 372.267054,85.0368087 C372.467046,84.7591464 372.922611,84.7813526 373.883689,85.4088827 C377.233724,87.5913985 377.194755,84.9590587 377.150382,84.3815138 C377.144821,84.3148811 377.139274,84.2704546 377.139274,84.2704546 C381.0892,86.9027801 381.722656,85.9642073 381.3004,84.2482342 C381.122623,83.5263065 381.983733,83.0098499 382.522611,83.531851 C386.100343,86.9915763 389.06709,87.8023428 390.511495,87.9745045 C390.994821,88.0300483 391.39482,87.6024305 391.317053,87.1192972 L391.139276,86.0641635 L391.133715,86.0530604 L396.02259,88.2243451 C396.778143,88.5575512 397.428139,87.5857119 396.828148,87.01927 C396.217035,86.441725 396.900368,85.4587258 397.655922,85.8253122 L400.250332,87.0803583 C401.061437,87.469094 401.728159,86.3473275 401.000324,85.8197535 L390.378062,78.1894784 L389.994732,77.9173606 L402.544668,83.7816632 C403.378003,84.1703989 404.028042,82.9930886 403.250216,82.4988523 L390.150308,74.1133972 C389.433638,73.6580287 389.933647,72.5528529 390.750313,72.7861598 L392.605881,73.3137195 L397.367041,74.6742804 C398.272595,74.9297365 398.711478,73.6191466 397.833713,73.2803961 L392.716999,71.3145397 L392.116994,71.0813039 L409.122455,75.2906648 C409.178007,75.3073265 409.23912,75.3128852 409.300232,75.3128852 L410.272446,75.3128852 C411.089112,75.3017679 411.289105,74.1466922 410.505776,73.8690583 L410.506728,73.8702383 Z" id="Fill-1" fill="#FFFFFF" opacity="0.152111235"></path>
                <path d="M67.9611764,898.095967 C67.9611764,898.095967 76.1420978,888.157829 77.8833964,887.664109 C79.6138599,887.165059 85.3250614,885.174217 88.0520809,882.9419 C88.0520809,882.9419 94.0042609,886.172372 92.7667264,890.518864 C91.5291371,894.870852 86.3216175,901.820021 83.8410625,903.805478 C81.3498095,905.785578 69.9433162,920.945552 75.4029786,927.899391 C80.8623666,934.853917 82.8446436,939.576126 90.0344951,941.062506 C97.2243466,942.554243 125.421424,946.171146 149.476745,942.194764 C173.532067,938.218493 170.140265,932.616133 172.615882,930.378458 C172.615882,930.378458 180.796804,930.378458 185.511449,922.677994 C185.511449,922.677994 189.727817,919.69974 190.970837,918.70708 C192.208427,917.714338 190.970837,916.217188 190.970837,916.217188 C190.970837,916.217188 191.576246,914.145873 191.52266,913.072575 C191.52266,913.072575 198,909.761602 198,906.697627 C198,903.633514 196.012374,907.690369 193.949725,908.189364 C193.949725,908.189364 196.505303,904.459952 196.591024,901.814416 C196.676745,899.16888 195.765964,901.56757 194.442654,902.726658 C194.442654,902.726658 196.264188,896.764929 195.514165,894.366253 C194.774826,891.962219 186.754593,900.574841 183.363203,902.152574 C183.363203,902.152574 176.585909,899.748541 174.764376,899.335322 C174.764376,899.335322 176.328746,896.936645 175.257277,896.276566 C174.185767,895.611157 167.488776,894.61847 165.174313,895.117479 C165.174313,895.117479 168.485332,892.471943 167.901333,892.305584 C167.322711,892.144596 157.073764,890.481128 150.377253,892.144596 C143.68033,893.791977 140.128196,894.623773 137.481686,893.550475 C134.835038,892.471874 136.244097,890.405861 136.988784,889.407844 C137.733486,888.415101 133.849208,886.563803 127.238006,888.892694 C123.73415,890.126911 106.814505,898.852262 99.790883,910.770774 C99.790883,910.770774 108.636175,897.521801 103.675065,882.116066 C98.7139551,866.709644 86.4774099,867.380026 82.0144408,868.529017 C77.5516088,869.693476 70.9350596,871.185268 67.9617127,882.110708 C67.9617127,882.110708 64.3239951,885.26068 67.9617127,887.246137 C67.9617127,887.246137 69.5260835,890.224391 66.3437149,894.69974 C63.1666955,899.164374 66.41872,899.931742 67.9617127,898.096571 L67.9611764,898.095967 Z" id="Fill-1" fill="#FFFFFF" opacity="0.152111235" transform="translate(131.500000, 906.000000) scale(-1, 1) translate(-131.500000, -906.000000) "></path>
                <g id="Group-3-Copy-2" transform="translate(1148.000000, 512.000000)" fill="#FFFFFF">
                    <path d="M68.5378563,63.1256734 C64.293875,59.5638284 40.8156991,40.4024601 27.0817255,31.0479753 C12.056807,20.8130815 23.027628,17.7528521 23.027628,17.7528521 L26.5722001,18.9630577 C27.6558754,24.8336972 62.9297618,57.9157253 68.4682249,63.0307553 L68.0753378,62.4685854 L69.1978409,63.695929 L80.2847143,75.8056747 L80.5696616,76.1189483 L66.835688,56.8760647 L81.6915016,73.8822213 L66.9473194,54.6393376 C66.9473194,54.6393376 63.2343055,47.678788 55.1309737,38.0660141 C47.0271998,28.4576455 41.9927358,19.3943967 36.1260102,11.0000897 C36.1260102,11.0000897 33.9716354,-1.97644274 16.6369424,0.258856155 C16.6369424,0.258856155 8.86994149,2.61049561 7.85531186,3.50309912 C6.84071539,4.3999981 7.96756218,3.61467181 4.03011395,4.73472716 C0.0883109964,5.85473857 -1.25878115,6.41260203 1.32741914,6.85895871 C3.91792995,7.30526046 5.29077469,7.08211508 8.31731098,8.87157363 C11.3438473,10.6610322 13.8220636,14.0169247 14.1588366,16.9264276 C14.4955986,19.8359306 11.6806203,36.2802688 22.5993835,45.906094 C22.5993835,45.906094 32.0545601,55.192587 38.8069313,57.7675586 C39.0227999,57.8490959 41.9759358,60.1878599 40.3828125,62.6897973 C39.4804664,64.8140288 33.9671038,68.843653 33.9671038,68.843653 L35.3659222,71.0579689 L43.0855073,64.8183133 C43.0855073,64.8183133 43.8755921,65.0414587 46.7985213,63.2519452 C46.7985213,63.2519452 51.4138703,64.5951899 53.326414,63.8098197 C55.2390682,63.0287889 59.7421227,68.3973073 66.8360196,71.0836868 C73.9295849,73.7700663 84.058197,91 84.058197,91 L88,91 L68.5378563,63.1256734 Z M17.4582176,5.53983904 C17.4582176,4.1494649 18.5936523,3.02077463 19.9925812,3.02077463 C21.3915101,3.02077463 22.5269447,4.14935504 22.5269447,5.53983904 C22.5269447,6.93021319 21.3915101,8.05890345 19.9925812,8.05890345 C18.5936523,8.05890345 17.4582176,6.93032305 17.4582176,5.53983904 Z" id="Fill-1" opacity="0.152111235"></path>
                    <path d="M62.5323554,69 C62.5323554,69 61.0008727,70.5371031 51.0551213,72.5564346 C51.0551213,72.5564346 46.3850631,73.6315068 44.4328778,73.6846691 C43.4020917,73.7132805 44.5001946,74.5472175 44.7736728,74.5472175 C45.0471511,74.5472175 54.214818,72.4910491 62.5280579,74.015793 C62.5280579,74.015793 70.6186678,75.740848 72.3015862,77 L73,76.2927944 C73,76.2927944 66.3650472,74.6413086 64.7915589,73.292262 C64.4507638,73.002025 63.2600762,71.865565 63.8869943,71.1093621 C64.5096687,70.3653615 62.5322584,69.0000314 62.5322584,69.0000314 L62.5323554,69 Z" id="Fill-2" opacity="0.0944475446"></path>
                </g>
                <path d="M1226.1242,62.4160568 C1226.1242,62.4160568 1228.13192,46.8331433 1251.49061,33.2671361 C1251.49061,33.2671361 1238.92836,37.0337622 1228.38239,50.3501339 C1228.38239,50.3501339 1233.65568,33.5252373 1230.88992,29 C1230.88992,29 1231.38984,50.3501339 1219.08543,54.1246064 C1219.08543,54.1246064 1211.91724,42.4778399 1215.74728,31.4922255 C1215.23931,33.1698835 1211.76408,44.3570233 1208.28081,47.8494427 C1208.28081,47.8494427 1200.99992,56.8990914 1209.53867,61.9159599 C1209.53867,61.9159599 1205.02333,58.9075319 1200,67.1909296 C1200,67.1909296 1202.25777,67.9491071 1204.26537,67.4409574 C1204.26537,67.4409574 1210.5466,72.2158302 1218.58545,68.9492391 C1218.58545,68.9492391 1240.19509,78.4989847 1252,56.3830128 C1252,56.3749394 1236.67199,70.9496269 1226.12581,62.4161807 L1226.1242,62.4160568 Z" id="Fill-3-Copy-6" fill="#FFFFFF" opacity="0.0944475446"></path>
                <path d="M1184.1242,769.416057 C1184.1242,769.416057 1186.13192,753.833143 1209.49061,740.267136 C1209.49061,740.267136 1196.92836,744.033762 1186.38239,757.350134 C1186.38239,757.350134 1191.65568,740.525237 1188.88992,736 C1188.88992,736 1189.38984,757.350134 1177.08543,761.124606 C1177.08543,761.124606 1169.91724,749.47784 1173.74728,738.492225 C1173.23931,740.169884 1169.76408,751.357023 1166.28081,754.849443 C1166.28081,754.849443 1158.99992,763.899091 1167.53867,768.91596 C1167.53867,768.91596 1163.02333,765.907532 1158,774.19093 C1158,774.19093 1160.25777,774.949107 1162.26537,774.440957 C1162.26537,774.440957 1168.5466,779.21583 1176.58545,775.949239 C1176.58545,775.949239 1198.19509,785.498985 1210,763.383013 C1210,763.374939 1194.67199,777.949627 1184.12581,769.416181 L1184.1242,769.416057 Z" id="Fill-3-Copy-5" fill="#FFFFFF" opacity="0.0944475446"></path>
                <path d="M1234.6648,943.554742 C1234.6648,943.554742 1237.3289,922.777524 1268.32408,904.689515 C1268.32408,904.689515 1251.65494,909.711683 1237.66124,927.466845 C1237.66124,927.466845 1244.6585,905.03365 1240.98855,899 C1240.98855,899 1241.6519,927.466845 1225.3249,932.499475 C1225.3249,932.499475 1215.81326,916.970453 1220.89543,902.322967 C1220.22139,904.559845 1215.61002,919.476031 1210.988,924.13259 C1210.988,924.13259 1201.32681,936.198788 1212.65708,942.887946 C1212.65708,942.887946 1206.66557,938.876709 1200,949.921239 C1200,949.921239 1202.99589,950.932143 1205.65982,950.25461 C1205.65982,950.25461 1213.99452,956.621107 1224.66146,952.265652 C1224.66146,952.265652 1253.3358,964.998646 1269,935.510684 C1269,935.499919 1248.66091,954.932836 1234.66694,943.554908 L1234.6648,943.554742 Z" id="Fill-3-Copy-4" fill="#FFFFFF" opacity="0.152111235" transform="translate(1234.500000, 927.000000) scale(1, -1) translate(-1234.500000, -927.000000) "></path>
                <path d="M1210.6648,258.554742 C1210.6648,258.554742 1213.3289,237.777524 1244.32408,219.689515 C1244.32408,219.689515 1227.65494,224.711683 1213.66124,242.466845 C1213.66124,242.466845 1220.6585,220.03365 1216.98855,214 C1216.98855,214 1217.6519,242.466845 1201.3249,247.499475 C1201.3249,247.499475 1191.81326,231.970453 1196.89543,217.322967 C1196.22139,219.559845 1191.61002,234.476031 1186.988,239.13259 C1186.988,239.13259 1177.32681,251.198788 1188.65708,257.887946 C1188.65708,257.887946 1182.66557,253.876709 1176,264.921239 C1176,264.921239 1178.99589,265.932143 1181.65982,265.25461 C1181.65982,265.25461 1189.99452,271.621107 1200.66146,267.265652 C1200.66146,267.265652 1229.3358,279.998646 1245,250.510684 C1245,250.499919 1224.66091,269.932836 1210.66694,258.554908 L1210.6648,258.554742 Z" id="Fill-3-Copy-2" fill="#FFFFFF" opacity="0.152111235" transform="translate(1210.500000, 242.000000) scale(1, -1) translate(-1210.500000, -242.000000) "></path>
                <path d="M1245.1242,340.416057 C1245.1242,340.416057 1247.13192,324.833143 1270.49061,311.267136 C1270.49061,311.267136 1257.92836,315.033762 1247.38239,328.350134 C1247.38239,328.350134 1252.65568,311.525237 1249.88992,307 C1249.88992,307 1250.38984,328.350134 1238.08543,332.124606 C1238.08543,332.124606 1230.91724,320.47784 1234.74728,309.492225 C1234.23931,311.169884 1230.76408,322.357023 1227.28081,325.849443 C1227.28081,325.849443 1219.99992,334.899091 1228.53867,339.91596 C1228.53867,339.91596 1224.02333,336.907532 1219,345.19093 C1219,345.19093 1221.25777,345.949107 1223.26537,345.440957 C1223.26537,345.440957 1229.5466,350.21583 1237.58545,346.949239 C1237.58545,346.949239 1259.19509,356.498985 1271,334.383013 C1271,334.374939 1255.67199,348.949627 1245.12581,340.416181 L1245.1242,340.416057 Z" id="Fill-3-Copy-9" fill="#FFFFFF" opacity="0.0944475446"></path>
            </g>
        </g>
    </g>
</svg>