<?xml version="1.0" encoding="UTF-8"?>
<svg width="640px" height="640px" viewBox="0 0 640 640" version="1.1" xmlns="http://www.w3.org/2000/svg" xmlns:xlink="http://www.w3.org/1999/xlink">
    <!-- Generator: Sketch 54.1 (76490) - https://sketchapp.com -->
    <title>Pattern</title>
    <desc>Created with Sketch.</desc>
    <g id="Page-1" stroke="none" stroke-width="1" fill="none" fill-rule="evenodd">
        <g id="Pattern">
            <rect id="Rectangle" fill="#546E7A" x="0" y="0" width="640" height="640"></rect>
            <path d="M478.215518,449.737774 C474.684593,445.998503 475.86013,441.761682 465.54975,442.010457 C455.243362,442.259268 452.883982,460.205439 452.883982,460.205439 C452.883982,460.205439 442.872611,458.709057 433.446311,468.181531 C424.028964,477.657553 413.722791,510.557022 399,517.790974 C399,517.790974 408.632214,519.262515 419.654409,517.264925 C421.02799,521.60839 424.213525,525.034917 426.101201,526.765516 L425.207931,526.765516 C425.207931,526.765516 416.962022,527.764348 415.196559,533 L460.255929,533 C460.255929,533 457.900541,526.765516 447.004443,526.765516 L442.432707,526.765516 C441.442518,525.098522 438.973405,520.829671 437.582889,517.293133 C436.761243,515.203112 437.410129,512.14638 438.3329,509.469818 C439.938288,508.239955 441.484672,506.903539 442.879288,505.328904 C457.900875,488.377797 472.918148,489.625313 473.508182,456.722204 C473.508182,456.722204 485.289439,456.473393 490,454.479406 C489.995793,454.475858 481.754091,453.477026 478.214429,449.737846 L478.215518,449.737774 Z M436.999969,526.999723 L429.998986,526.999723 C429.040779,525.314589 426.651416,520.999284 425.305812,517.424262 C425.142713,516.989493 425.053006,516.504429 425,515.997785 C426.73297,515.458818 428.453623,514.78333 430.149851,514 C430.492353,519.975326 434.72883,524.819076 437,527 L436.999969,526.999723 Z" id="Fill-1-Copy-7" fill="#FFFFFF" opacity="0.152111235"></path>
            <g id="Group-3" transform="translate(18.000000, 189.000000)" fill="#FFFFFF">
                <path d="M68.5378563,63.1256734 C64.293875,59.5638284 40.8156991,40.4024601 27.0817255,31.0479753 C12.056807,20.8130815 23.027628,17.7528521 23.027628,17.7528521 L26.5722001,18.9630577 C27.6558754,24.8336972 62.9297618,57.9157253 68.4682249,63.0307553 L68.0753378,62.4685854 L69.1978409,63.695929 L80.2847143,75.8056747 L80.5696616,76.1189483 L66.835688,56.8760647 L81.6915016,73.8822213 L66.9473194,54.6393376 C66.9473194,54.6393376 63.2343055,47.678788 55.1309737,38.0660141 C47.0271998,28.4576455 41.9927358,19.3943967 36.1260102,11.0000897 C36.1260102,11.0000897 33.9716354,-1.97644274 16.6369424,0.258856155 C16.6369424,0.258856155 8.86994149,2.61049561 7.85531186,3.50309912 C6.84071539,4.3999981 7.96756218,3.61467181 4.03011395,4.73472716 C0.0883109964,5.85473857 -1.25878115,6.41260203 1.32741914,6.85895871 C3.91792995,7.30526046 5.29077469,7.08211508 8.31731098,8.87157363 C11.3438473,10.6610322 13.8220636,14.0169247 14.1588366,16.9264276 C14.4955986,19.8359306 11.6806203,36.2802688 22.5993835,45.906094 C22.5993835,45.906094 32.0545601,55.192587 38.8069313,57.7675586 C39.0227999,57.8490959 41.9759358,60.1878599 40.3828125,62.6897973 C39.4804664,64.8140288 33.9671038,68.843653 33.9671038,68.843653 L35.3659222,71.0579689 L43.0855073,64.8183133 C43.0855073,64.8183133 43.8755921,65.0414587 46.7985213,63.2519452 C46.7985213,63.2519452 51.4138703,64.5951899 53.326414,63.8098197 C55.2390682,63.0287889 59.7421227,68.3973073 66.8360196,71.0836868 C73.9295849,73.7700663 84.058197,91 84.058197,91 L88,91 L68.5378563,63.1256734 Z M17.4582176,5.53983904 C17.4582176,4.1494649 18.5936523,3.02077463 19.9925812,3.02077463 C21.3915101,3.02077463 22.5269447,4.14935504 22.5269447,5.53983904 C22.5269447,6.93021319 21.3915101,8.05890345 19.9925812,8.05890345 C18.5936523,8.05890345 17.4582176,6.93032305 17.4582176,5.53983904 Z" id="Fill-1" opacity="0.152111235"></path>
                <path d="M34.5323554,69 C34.5323554,69 33.0008727,70.5371031 23.0551213,72.5564346 C23.0551213,72.5564346 18.3850631,73.6315068 16.4328778,73.6846691 C15.4020917,73.7132805 16.5001946,74.5472175 16.7736728,74.5472175 C17.0471511,74.5472175 26.214818,72.4910491 34.5280579,74.015793 C34.5280579,74.015793 42.6186678,75.740848 44.3015862,77 L45,76.2927944 C45,76.2927944 38.3650472,74.6413086 36.7915589,73.292262 C36.4507638,73.002025 35.2600762,71.865565 35.8869943,71.1093621 C36.5096687,70.3653615 34.5322584,69.0000314 34.5322584,69.0000314 L34.5323554,69 Z" id="Fill-2" opacity="0.0944475446"></path>
            </g>
            <path d="M202.035,512.461 C201.83578,511.72272 201.61312,510.9805 201.3475,510.2462 C201.3475,510.2462 201.59359,511.08995 202.035,512.461 Z" id="Fill-1" fill="#000000"></path>
            <path d="M606.121601,90.574 C618.180601,83.4607 607.883301,70.676 607.883301,70.676 C603.695801,66.4885 599.512201,54.418 597.902801,49.414 C601.945801,64.383 592.590301,79.562 592.590301,79.562 C575.164301,74.2261 575.875301,44 575.875301,44 C571.965101,50.4023 579.430001,74.23 579.430001,74.23 C564.492001,55.378 546.711002,50.05 546.711002,50.05 C579.785001,69.253 582.629001,91.3 582.629001,91.3 C567.691001,103.394 546,82.7648 546,82.7648 C562.715001,114.057796 593.301001,100.5458 593.301001,100.5458 C604.684001,105.166897 613.574001,98.413 613.574001,98.413 C616.421701,99.12394 619.617001,98.05753 619.617001,98.05753 C612.726401,86.69453 606.512001,90.33093 606.121001,90.57313 L606.121601,90.574 Z" id="Fill-2-Copy" fill="#FFFFFF" opacity="0.152111235"></path>
            <path d="M318.1242,445.416057 C318.1242,445.416057 320.131922,429.833143 343.490608,416.267136 C343.490608,416.267136 330.928363,420.033762 320.382386,433.350134 C320.382386,433.350134 325.655685,416.525237 322.889923,412 C322.889923,412 323.38984,433.350134 311.08543,437.124606 C311.08543,437.124606 303.917237,425.47784 307.747277,414.492225 C307.239309,416.169884 303.764077,427.357023 300.280814,430.849443 C300.280814,430.849443 292.999918,439.899091 301.538669,444.91596 C301.538669,444.91596 297.023329,441.907532 292,450.19093 C292,450.19093 294.257773,450.949107 296.265371,450.440957 C296.265371,450.440957 302.546596,455.21583 310.58545,451.949239 C310.58545,451.949239 332.195094,461.498985 344,439.383013 C344,439.374939 328.671994,453.949627 318.12581,445.416181 L318.1242,445.416057 Z" id="Fill-3" fill="#FFFFFF" opacity="0.0944475446"></path>
            <path d="M67.1242002,509.416057 C67.1242002,509.416057 69.1319218,493.833143 92.4906077,480.267136 C92.4906077,480.267136 79.9283635,484.033762 69.3823864,497.350134 C69.3823864,497.350134 74.6556846,480.525237 71.8899226,476 C71.8899226,476 72.3898404,497.350134 60.0854298,501.124606 C60.0854298,501.124606 52.9172369,489.47784 56.7472775,478.492225 C56.2393095,480.169884 52.7640765,491.357023 49.2808141,494.849443 C49.2808141,494.849443 41.9999182,503.899091 50.5386692,508.91596 C50.5386692,508.91596 46.0233289,505.907532 41,514.19093 C41,514.19093 43.2577733,514.949107 45.265371,514.440957 C45.265371,514.440957 51.5465963,519.21583 59.5854501,515.949239 C59.5854501,515.949239 81.1950945,525.498985 93,503.383013 C93,503.374939 77.6719938,517.949627 67.1258103,509.416181 L67.1242002,509.416057 Z" id="Fill-3-Copy-8" fill="#FFFFFF" opacity="0.0944475446"></path>
            <path d="M197.1242,214.416057 C197.1242,214.416057 199.131922,198.833143 222.490608,185.267136 C222.490608,185.267136 209.928363,189.033762 199.382386,202.350134 C199.382386,202.350134 204.655685,185.525237 201.889923,181 C201.889923,181 202.38984,202.350134 190.08543,206.124606 C190.08543,206.124606 182.917237,194.47784 186.747277,183.492225 C186.239309,185.169884 182.764077,196.357023 179.280814,199.849443 C179.280814,199.849443 171.999918,208.899091 180.538669,213.91596 C180.538669,213.91596 176.023329,210.907532 171,219.19093 C171,219.19093 173.257773,219.949107 175.265371,219.440957 C175.265371,219.440957 181.546596,224.21583 189.58545,220.949239 C189.58545,220.949239 211.195094,230.498985 223,208.383013 C223,208.374939 207.671994,222.949627 197.12581,214.416181 L197.1242,214.416057 Z" id="Fill-3-Copy-7" fill="#FFFFFF" opacity="0.0944475446"></path>
            <path d="M557.1242,585.416057 C557.1242,585.416057 559.131922,569.833143 582.490608,556.267136 C582.490608,556.267136 569.928363,560.033762 559.382386,573.350134 C559.382386,573.350134 564.655685,556.525237 561.889923,552 C561.889923,552 562.38984,573.350134 550.08543,577.124606 C550.08543,577.124606 542.917237,565.47784 546.747277,554.492225 C546.239309,556.169884 542.764077,567.357023 539.280814,570.849443 C539.280814,570.849443 531.999918,579.899091 540.538669,584.91596 C540.538669,584.91596 536.023329,581.907532 531,590.19093 C531,590.19093 533.257773,590.949107 535.265371,590.440957 C535.265371,590.440957 541.546596,595.21583 549.58545,591.949239 C549.58545,591.949239 571.195094,601.498985 583,579.383013 C583,579.374939 567.671994,593.949627 557.12581,585.416181 L557.1242,585.416057 Z" id="Fill-3-Copy-10" fill="#FFFFFF" opacity="0.0944475446"></path>
            <path d="M212.781,487.27 C212.80053,487.20359 212.81615,487.15672 212.81615,487.15672 C212.80053,487.19578 212.79272,487.23485 212.781,487.27 Z" id="Fill-4" fill="#000000"></path>
            <path d="M106.035,573.461 C105.83578,572.72272 105.61312,571.9805 105.3475,571.2462 C105.3475,571.2462 105.59359,572.08995 106.035,573.461 Z" id="Fill-1" fill="#000000"></path>
            <path d="M366.121601,285.574 C378.180601,278.4607 367.883301,265.676 367.883301,265.676 C363.695801,261.4885 359.512201,249.418 357.902801,244.414 C361.945801,259.383 352.590301,274.562 352.590301,274.562 C335.164301,269.2261 335.875301,239 335.875301,239 C331.965101,245.4023 339.430001,269.23 339.430001,269.23 C324.492001,250.378 306.711002,245.05 306.711002,245.05 C339.785001,264.253 342.629001,286.3 342.629001,286.3 C327.691001,298.394 306,277.7648 306,277.7648 C322.715001,309.057796 353.301001,295.5458 353.301001,295.5458 C364.684001,300.166897 373.574001,293.413 373.574001,293.413 C376.421701,294.12394 379.617001,293.05753 379.617001,293.05753 C372.726401,281.69453 366.512001,285.33093 366.121001,285.57313 L366.121601,285.574 Z" id="Fill-2" fill="#FFFFFF" opacity="0.152111235"></path>
            <path d="M554.121601,344.574 C566.180601,337.4607 555.883301,324.676 555.883301,324.676 C551.695801,320.4885 547.512201,308.418 545.902801,303.414 C549.945801,318.383 540.590301,333.562 540.590301,333.562 C523.164301,328.2261 523.875301,298 523.875301,298 C519.965101,304.4023 527.430001,328.23 527.430001,328.23 C512.492001,309.378 494.711002,304.05 494.711002,304.05 C527.785001,323.253 530.629001,345.3 530.629001,345.3 C515.691001,357.394 494,336.7648 494,336.7648 C510.715001,368.057796 541.301001,354.5458 541.301001,354.5458 C552.684001,359.166897 561.574001,352.413 561.574001,352.413 C564.421701,353.12394 567.617001,352.05753 567.617001,352.05753 C560.726401,340.69453 554.512001,344.33093 554.121001,344.57313 L554.121601,344.574 Z" id="Fill-2-Copy-2" fill="#FFFFFF" opacity="0.152111235"></path>
            <path d="M116.781,548.27 C116.80053,548.20359 116.81615,548.15672 116.81615,548.15672 C116.80053,548.19578 116.79272,548.23485 116.781,548.27 Z" id="Fill-4" fill="#000000"></path>
            <path d="M524.564102,197.60323 L526,197.300691 L524.942288,196.238873 C524.487285,195.704979 512.536263,183.781645 499.148465,183.781645 C496.046127,183.781645 492.642449,183.85876 489.921474,184.01003 C489.844657,183.85876 489.693972,183.630375 489.466471,183.55326 L476.530984,178.086841 L476.07893,175.963128 L473.204109,177.404601 L473.204109,173 L471.842033,174.290218 C471.540663,174.592757 463.521932,182.185516 461.480479,187.198476 C460.422768,189.553549 460.49659,192.211132 461.631164,194.945708 L458.076817,199.804072 L458.076817,199.881188 C458.076817,199.958303 458,199.958303 458,200.032458 L458,200.183727 L458,200.260843 L458,200.337958 L458,200.489228 C458,200.566343 458,200.566343 458.076817,200.640497 C458.076817,200.717613 458.153634,200.717613 458.153634,200.791767 C458.153634,200.868882 458.230452,200.868882 458.304319,200.943036 L458.381136,201.020152 C458.381136,201.020152 458.457953,201.020152 458.457953,201.097267 C458.457953,201.097267 458.534771,201.097267 458.534771,201.174383 C458.611588,201.174383 458.762272,201.251498 458.83614,201.251498 L465.794167,201.251498 C466.55054,202.087953 467.306912,202.847262 468.213955,203.68068 C469.348514,204.742498 470.633742,206.035754 471.918971,207.400081 C476.002173,211.653428 480.767776,216.662894 486.969276,218.71227 L478.196865,230.632666 C477.895495,231.012321 478.04618,231.54323 478.347549,231.77163 C478.498234,231.848746 478.648918,231.9229 478.802553,231.9229 C479.030055,231.9229 479.331424,231.77163 479.482108,231.620361 L481.222371,229.191178 L483.792828,231.771615 C483.943512,231.922885 484.171014,232 484.398516,232 C484.626018,232 484.85352,231.922885 485.004204,231.771615 C485.305573,231.469076 485.305573,230.93516 485.004204,230.632651 L482.280052,227.897923 L488.632373,219.165866 C489.994449,219.468406 491.356525,219.696791 492.792423,219.696791 C493.471979,219.696791 494.077652,219.619675 494.760202,219.545521 L486.517252,230.632955 C486.215883,231.012609 486.366568,231.543518 486.667937,231.771919 C486.818621,231.849034 486.969306,231.923188 487.12294,231.923188 C487.350442,231.923188 487.651811,231.771919 487.802496,231.620649 L489.693428,229.040213 L492.340732,231.697795 C492.491417,231.849065 492.718919,231.92618 492.94642,231.92618 C493.173922,231.92618 493.401424,231.849065 493.552109,231.697795 C493.853478,231.395256 493.853478,230.86134 493.552109,230.558831 L490.754135,227.749994 L497.257201,218.709658 C500.888395,217.268185 504.365894,214.382203 507.240564,210.888013 L512.006318,210.888013 C514.881139,210.888013 517.528444,207.471122 518.134147,206.711813 C520.704604,205.875357 522.749231,202.992412 523.05057,202.612757 L523.957612,201.322539 L513.596062,201.322539 C513.823564,200.865769 514.051065,200.411975 514.20175,200.032321 C518.890656,198.967541 522.974161,197.982793 524.5633,197.603139 L524.564102,197.60323 Z M473.354094,189.052177 C472.696502,190.082187 471.250325,189.998357 471.250325,189.998357 C470.790524,189.481668 470.988314,188.193262 471.645906,187.163252 C472.303498,186.133241 473.289886,185.703784 473.749675,186.217071 C474.209476,186.73376 474.011686,188.022166 473.354094,189.052177 Z" id="Fill-1" fill="#FFFFFF" opacity="0.152111235"></path>
            <path d="M255.564102,557.60323 L257,557.300691 L255.942288,556.238873 C255.487285,555.704979 243.536263,543.781645 230.148465,543.781645 C227.046127,543.781645 223.642449,543.85876 220.921474,544.01003 C220.844657,543.85876 220.693972,543.630375 220.466471,543.55326 L207.530984,538.086841 L207.07893,535.963128 L204.204109,537.404601 L204.204109,533 L202.842033,534.290218 C202.540663,534.592757 194.521932,542.185516 192.480479,547.198476 C191.422768,549.553549 191.49659,552.211132 192.631164,554.945708 L189.076817,559.804072 L189.076817,559.881188 C189.076817,559.958303 189,559.958303 189,560.032458 L189,560.183727 L189,560.260843 L189,560.337958 L189,560.489228 C189,560.566343 189,560.566343 189.076817,560.640497 C189.076817,560.717613 189.153634,560.717613 189.153634,560.791767 C189.153634,560.868882 189.230452,560.868882 189.304319,560.943036 L189.381136,561.020152 C189.381136,561.020152 189.457953,561.020152 189.457953,561.097267 C189.457953,561.097267 189.534771,561.097267 189.534771,561.174383 C189.611588,561.174383 189.762272,561.251498 189.83614,561.251498 L196.794167,561.251498 C197.55054,562.087953 198.306912,562.847262 199.213955,563.68068 C200.348514,564.742498 201.633742,566.035754 202.918971,567.400081 C207.002173,571.653428 211.767776,576.662894 217.969276,578.71227 L209.196865,590.632666 C208.895495,591.012321 209.04618,591.54323 209.347549,591.77163 C209.498234,591.848746 209.648918,591.9229 209.802553,591.9229 C210.030055,591.9229 210.331424,591.77163 210.482108,591.620361 L212.222371,589.191178 L214.792828,591.771615 C214.943512,591.922885 215.171014,592 215.398516,592 C215.626018,592 215.85352,591.922885 216.004204,591.771615 C216.305573,591.469076 216.305573,590.93516 216.004204,590.632651 L213.280052,587.897923 L219.632373,579.165866 C220.994449,579.468406 222.356525,579.696791 223.792423,579.696791 C224.471979,579.696791 225.077652,579.619675 225.760202,579.545521 L217.517252,590.632955 C217.215883,591.012609 217.366568,591.543518 217.667937,591.771919 C217.818621,591.849034 217.969306,591.923188 218.12294,591.923188 C218.350442,591.923188 218.651811,591.771919 218.802496,591.620649 L220.693428,589.040213 L223.340732,591.697795 C223.491417,591.849065 223.718919,591.92618 223.94642,591.92618 C224.173922,591.92618 224.401424,591.849065 224.552109,591.697795 C224.853478,591.395256 224.853478,590.86134 224.552109,590.558831 L221.754135,587.749994 L228.257201,578.709658 C231.888395,577.268185 235.365894,574.382203 238.240564,570.888013 L243.006318,570.888013 C245.881139,570.888013 248.528444,567.471122 249.134147,566.711813 C251.704604,565.875357 253.749231,562.992412 254.05057,562.612757 L254.957612,561.322539 L244.596062,561.322539 C244.823564,560.865769 245.051065,560.411975 245.20175,560.032321 C249.890656,558.967541 253.974161,557.982793 255.5633,557.603139 L255.564102,557.60323 Z M204.354094,549.052177 C203.696502,550.082187 202.250325,549.998357 202.250325,549.998357 C201.790524,549.481668 201.988314,548.193262 202.645906,547.163252 C203.303498,546.133241 204.289886,545.703784 204.749675,546.217071 C205.209476,546.73376 205.011686,548.022166 204.354094,549.052177 Z" id="Fill-1-Copy-8" fill="#FFFFFF" opacity="0.152111235"></path>
            <path d="M105.310708,58.1902726 L107,57.8313278 L105.755633,56.5715437 C105.220335,55.9381111 91.160309,41.791782 75.409959,41.791782 C71.7601491,41.791782 67.7558228,41.8832749 64.5546754,42.0627473 C64.4643022,41.8832749 64.2870262,41.6123096 64.0193771,41.5208167 L48.8011575,35.0352345 L48.2693296,32.5155761 L44.8871866,34.225798 L44.8871866,29 L43.2847443,30.5307675 C42.9301923,30.8897123 33.4963911,39.8980698 31.0946817,45.8456492 C29.850315,48.6398043 29.9371644,51.7928682 31.2719576,55.0372808 L27.0903732,60.8014419 L27.0903732,60.8929348 C27.0903732,60.9844277 27,60.9844277 27,61.0724072 L27,61.2518796 L27,61.3433725 L27,61.4348654 L27,61.6143378 C27,61.7058307 27,61.7058307 27.0903732,61.7938102 C27.0903732,61.8853031 27.1807464,61.8853031 27.1807464,61.9732826 C27.1807464,62.0647755 27.2711196,62.0647755 27.3580224,62.152755 L27.4483956,62.2442479 C27.4483956,62.2442479 27.5387688,62.2442479 27.5387688,62.3357408 C27.5387688,62.3357408 27.6291419,62.3357408 27.6291419,62.4272337 C27.7195151,62.4272337 27.8967911,62.5187266 27.9836939,62.5187266 L36.1696082,62.5187266 C37.0594585,63.511131 37.9493087,64.4120064 39.0164172,65.4008072 C40.3511926,66.6605913 41.8632262,68.1949623 43.3752598,69.8136552 C48.1790276,74.8599988 53.7856183,80.8034341 61.0815008,83.2348968 L50.7610172,97.3777396 C50.4064652,97.8281773 50.5837412,98.4580694 50.9382932,98.7290527 C51.1155691,98.8205456 51.2928451,98.9085251 51.4735915,98.9085251 C51.7412407,98.9085251 52.0957926,98.7290527 52.2730686,98.5495803 L54.3204361,95.6674998 L57.3445033,98.7290347 C57.5217793,98.9085071 57.7894285,99 58.0570776,99 C58.3247268,99 58.592376,98.9085071 58.7696519,98.7290347 C59.1242039,98.3700899 59.1242039,97.7366304 58.7696519,97.3777216 L55.5647672,94.1331288 L63.0380858,83.7730618 C64.6405282,84.1320066 66.2429705,84.4029719 67.9322623,84.4029719 C68.7317394,84.4029719 69.4442959,84.311479 70.2472968,84.2234995 L60.5497084,97.378082 C60.1951565,97.8285197 60.3724325,98.4584117 60.7269844,98.729395 C60.9042604,98.820888 61.0815364,98.9088674 61.2622827,98.9088674 C61.5299319,98.9088674 61.8844839,98.729395 62.0617598,98.5499227 L64.2863855,95.4883877 L67.4008615,98.6414516 C67.5781375,98.820924 67.8457867,98.9124169 68.1134358,98.9124169 C68.381085,98.9124169 68.6487342,98.820924 68.8260102,98.6414516 C69.1805621,98.2825068 69.1805621,97.6490473 68.8260102,97.2901385 L65.534276,93.9576202 L73.1849418,83.2317978 C77.456935,81.521576 81.5481107,78.0975288 84.9300757,73.9518804 L90.5368443,73.9518804 C93.9189873,73.9518804 97.0334633,69.8979411 97.7460554,68.9970657 C100.770123,68.0046614 103.175566,64.5842177 103.530082,64.13378 L104.597191,62.6030125 L92.4071316,62.6030125 C92.6747808,62.0610819 92.94243,61.5226828 93.119706,61.0722451 C98.6360658,59.8089475 103.44019,58.6406022 105.309765,58.1901645 L105.310708,58.1902726 Z M45.1387915,49.0521768 C44.2620022,50.0821873 42.3337672,49.9983572 42.3337672,49.9983572 C41.7206985,49.4816685 41.9844192,48.1932621 42.8612085,47.1632516 C43.7379978,46.133241 45.0531818,45.7037837 45.6662328,46.2170711 C46.2793015,46.7337598 46.0155808,48.0221663 45.1387915,49.0521768 Z" id="Fill-1-Copy" fill="#FFFFFF" opacity="0.152111235" transform="translate(67.000000, 64.000000) scale(-1, 1) translate(-67.000000, -64.000000) "></path>
            <path d="M395.506728,73.8702383 L369.945203,64.8849894 L376.295122,64.8849894 L339.87354,51.3959561 C339.845764,51.384853 339.817989,51.3737357 339.790213,51.3626327 C336.462507,49.7410997 337.79029,47.836232 338.584655,47.0420988 C338.662436,46.9643489 338.756872,46.9088192 338.86799,46.8754958 C339.051328,46.8144075 339.262427,46.7477748 339.506878,46.6644662 C340.773534,46.242407 341.501255,45.7092886 341.917965,45.2040061 C342.373515,44.6486815 341.834623,43.8267835 341.145743,44.0322544 C334.606811,45.987022 322.245887,44.7097555 322.245887,44.7097555 C321.173663,44.4320932 319.479246,45.3483887 317.718114,46.6756119 C317.279231,47.008818 316.834788,47.3642303 316.390345,47.7307457 C315.895897,48.1472462 315.401463,48.5804085 314.929301,49.0135565 C313.579303,50.2519409 312.36817,51.4848092 311.579266,52.312209 C310.990382,52.9286218 310.634828,53.3284606 310.634828,53.3284606 C310.484826,53.3839902 310.334825,53.4450785 310.190385,53.5006081 C309.029272,53.9670938 308.179226,54.4169036 307.551459,54.8223011 L307.490346,54.861169 C307.290354,54.9944486 307.112577,55.1221695 306.957015,55.2443461 C306.757022,55.399846 306.595899,55.5442287 306.45702,55.6830528 C305.901473,56.2383773 305.851468,56.5882452 305.851468,56.5882452 C305.562587,58.0431609 303.862638,59.5314853 302.351531,60.5977222 C301.58487,61.1363992 300.868158,61.5695473 300.407075,61.8305621 C300.223737,61.9360769 300.007076,61.9527386 299.807069,61.8805473 C295.745926,60.4811043 281.501701,56.2105841 274.123232,62.2192978 C274.073231,62.2581657 274.028787,62.3025922 273.989899,62.3581361 C273.878787,62.5025187 273.617676,62.8468279 273.295459,63.3133137 C271.495499,65.190317 270.712142,67.339424 270.373227,69.0276323 C270.34545,69.172015 270.267671,69.3052946 270.162113,69.4052507 C268.273265,71.2211231 268.034333,74.0256103 268.001053,74.6920794 C267.995498,74.7864769 268.012163,74.8864473 268.045497,74.9753004 C268.934383,77.4909085 270.034327,78.4461145 270.889933,78.7848935 C271.37326,78.9792614 271.906591,78.6071874 271.884376,78.085172 C271.82882,76.5135389 274.789968,74.1089616 277.067652,72.4929731 C277.162087,72.4263262 277.273205,72.3818996 277.389869,72.3652379 C277.573207,72.3374731 277.756531,72.3152669 277.94543,72.2819435 C278.056534,72.2652818 278.178759,72.2708404 278.289877,72.3041496 C279.912059,72.7928415 281.189922,73.3925926 282.21207,74.0701222 C282.223178,74.0756808 282.234285,74.0867839 282.245407,74.0923425 C282.373179,74.2034018 283.050966,74.7976085 284.017633,75.8138175 C288.689904,80.7062807 299.822742,95.0117671 285.22319,108.072457 C285.162078,108.261267 285.028745,108.416767 284.850967,108.50562 C284.167634,108.84437 283.462086,109.088723 282.845356,109.260871 L282.856463,109.4719 C281.662027,109.477459 280.02312,109.799548 280.03976,111.52661 C280.045307,112.254096 281.028643,112.476229 281.406426,111.859816 C281.75642,111.28783 282.256429,110.788021 282.928626,110.704726 L282.934173,110.815785 C283.82862,111.326698 285.467428,110.482579 286.428563,109.882828 L286.711897,109.955034 C284.411886,112.715023 282.384088,114.642069 282.050862,114.952983 C282.017539,114.986293 281.984202,115.008513 281.945319,115.036278 C281.728658,115.169557 281.528652,115.302837 281.345314,115.430558 L281.473086,116.07475 C281.506423,116.235794 281.478647,116.396839 281.406426,116.54678 C280.973091,117.479737 280.945315,118.545903 282.189756,119.428889 C282.778639,119.84539 283.57309,119.278948 283.328639,118.601447 C283.200853,118.251593 283.106418,117.87396 283.073081,117.501886 C283.050852,117.240886 283.200853,117.007636 283.406421,116.846592 C283.761975,116.568929 283.828649,116.080237 283.828649,116.080237 C283.961982,115.869208 284.12309,115.635972 284.306429,115.391619 C285.534201,113.714499 287.600854,111.432042 287.600854,111.432042 C289.111961,109.621714 288.778622,111.948499 288.778622,111.948499 C288.106396,113.220206 287.634177,114.275312 287.317577,115.158298 C285.395307,120.450671 289.023101,119.373203 289.023101,119.373203 C286.895321,118.468011 287.773099,117.362849 288.08977,117.04639 C288.145322,116.99086 288.184206,116.963096 288.184206,116.963096 C289.689766,116.685433 290.261924,113.470104 290.473123,111.237688 L290.473123,111.215468 C290.489792,111.0211 290.50646,110.837849 290.523129,110.665688 C290.728682,109.499495 291.595353,109.166274 292.017595,109.077421 C292.095376,109.066318 292.167597,109.055215 292.245378,109.044098 L292.256485,109.044098 C292.795378,108.9497 293.32871,108.788642 293.812107,108.616494 C298.100948,107.094903 298.739808,108.122244 298.828697,108.566523 C298.834258,108.622053 298.839805,108.672038 298.839805,108.727568 L298.839805,108.744229 L298.845365,108.744229 C299.20092,113.186883 302.689763,110.776761 304.15095,109.55501 C304.495397,109.266245 305.01206,109.355098 305.245389,109.738275 C316.173144,127.508889 311.539842,108.877509 313.950928,113.053561 C316.395437,117.285241 316.395437,116.635406 320.789806,119.240009 C323.428732,120.800553 323.717584,119.140053 323.53426,117.562889 C323.456479,116.90205 324.25093,116.507756 324.756486,116.940918 C329.334321,120.861542 331.723079,122.821854 333.328621,122.821854 C335.117487,122.821854 328.284156,115.497091 330.400843,117.612789 C331.53418,118.745673 334.850821,120.572663 337.695257,122.033265 C338.45081,122.422001 339.150755,121.4335 338.539699,120.844852 C336.184221,118.590258 334.511977,116.729888 340.00629,120.706013 C342.911882,122.810765 344.984053,124.110152 346.46188,124.904285 C347.25077,125.326345 347.96744,124.24899 347.272985,123.688107 C340.789662,118.379101 345.406324,120.27288 348.923043,121.972177 L349.317481,122.205413 L349.534141,122.272059 C349.534141,122.272059 351.967414,123.504899 349.967477,120.750468 C349.967477,120.750468 318.217881,98.1761021 316.228198,91.4730265 C316.255974,91.212026 316.222637,90.9232464 316.139309,90.6178193 C316.14487,90.606702 316.133749,90.5900403 316.139309,90.5789372 L316.128202,90.5900403 C315.555987,88.5796863 312.839323,85.647535 310.21149,82.4711444 C307.117028,78.7282266 312.000356,74.6631631 315.42264,83.2819251 C318.839234,91.9062173 319.000371,89.4683733 324.378204,93.5332947 C329.750349,97.5983581 325.517088,89.9514497 326.983708,92.2338221 C328.450299,94.5107353 327.961483,89.1405979 330.400302,91.7451302 C332.844811,94.3495914 335.772447,101.346806 335.611452,97.4428155 C335.450343,93.5388249 338.705914,99.886346 339.678142,95.6546653 C339.76147,95.2936943 339.86148,95.0215907 339.961476,94.8105611 C341.105921,92.5615122 343.405946,98.1925222 343.255902,94.0275452 C343.183682,91.9728357 343.305907,91.0787606 343.767019,90.89551 C344.322566,90.6678187 345.378107,91.4952754 347.161427,92.5670851 C350.417026,94.5218526 348.139201,88.8241673 350.094751,90.7789348 C351.361407,92.0450839 351.055858,90.5790225 351.389197,89.7460214 C351.572535,89.290653 351.944758,89.0185351 352.861477,89.4794622 C355.466981,90.7789348 352.861477,86.0642345 355.955939,87.8523848 C358.250404,89.1796222 356.689264,85.8475752 357.267054,85.0368087 C357.467046,84.7591464 357.922611,84.7813526 358.883689,85.4088827 C362.233724,87.5913985 362.194755,84.9590587 362.150382,84.3815138 C362.144821,84.3148811 362.139274,84.2704546 362.139274,84.2704546 C366.0892,86.9027801 366.722656,85.9642073 366.3004,84.2482342 C366.122623,83.5263065 366.983733,83.0098499 367.522611,83.531851 C371.100343,86.9915763 374.06709,87.8023428 375.511495,87.9745045 C375.994821,88.0300483 376.39482,87.6024305 376.317053,87.1192972 L376.139276,86.0641635 L376.133715,86.0530604 L381.02259,88.2243451 C381.778143,88.5575512 382.428139,87.5857119 381.828148,87.01927 C381.217035,86.441725 381.900368,85.4587258 382.655922,85.8253122 L385.250332,87.0803583 C386.061437,87.469094 386.728159,86.3473275 386.000324,85.8197535 L375.378062,78.1894784 L374.994732,77.9173606 L387.544668,83.7816632 C388.378003,84.1703989 389.028042,82.9930886 388.250216,82.4988523 L375.150308,74.1133972 C374.433638,73.6580287 374.933647,72.5528529 375.750313,72.7861598 L377.605881,73.3137195 L382.367041,74.6742804 C383.272595,74.9297365 383.711478,73.6191466 382.833713,73.2803961 L377.716999,71.3145397 L377.116994,71.0813039 L394.122455,75.2906648 C394.178007,75.3073265 394.23912,75.3128852 394.300232,75.3128852 L395.272446,75.3128852 C396.089112,75.3017679 396.289105,74.1466922 395.505776,73.8690583 L395.506728,73.8702383 Z" id="Fill-1" fill="#FFFFFF" opacity="0.152111235"></path>
            <path d="M92.9611764,370.095967 C92.9611764,370.095967 101.142098,360.157829 102.883396,359.664109 C104.61386,359.165059 110.325061,357.174217 113.052081,354.9419 C113.052081,354.9419 119.004261,358.172372 117.766726,362.518864 C116.529137,366.870852 111.321617,373.820021 108.841062,375.805478 C106.349809,377.785578 94.9433162,392.945552 100.402979,399.899391 C105.862367,406.853917 107.844644,411.576126 115.034495,413.062506 C122.224347,414.554243 150.421424,418.171146 174.476745,414.194764 C198.532067,410.218493 195.140265,404.616133 197.615882,402.378458 C197.615882,402.378458 205.796804,402.378458 210.511449,394.677994 C210.511449,394.677994 214.727817,391.69974 215.970837,390.70708 C217.208427,389.714338 215.970837,388.217188 215.970837,388.217188 C215.970837,388.217188 216.576246,386.145873 216.52266,385.072575 C216.52266,385.072575 223,381.761602 223,378.697627 C223,375.633514 221.012374,379.690369 218.949725,380.189364 C218.949725,380.189364 221.505303,376.459952 221.591024,373.814416 C221.676745,371.16888 220.765964,373.56757 219.442654,374.726658 C219.442654,374.726658 221.264188,368.764929 220.514165,366.366253 C219.774826,363.962219 211.754593,372.574841 208.363203,374.152574 C208.363203,374.152574 201.585909,371.748541 199.764376,371.335322 C199.764376,371.335322 201.328746,368.936645 200.257277,368.276566 C199.185767,367.611157 192.488776,366.61847 190.174313,367.117479 C190.174313,367.117479 193.485332,364.471943 192.901333,364.305584 C192.322711,364.144596 182.073764,362.481128 175.377253,364.144596 C168.68033,365.791977 165.128196,366.623773 162.481686,365.550475 C159.835038,364.471874 161.244097,362.405861 161.988784,361.407844 C162.733486,360.415101 158.849208,358.563803 152.238006,360.892694 C148.73415,362.126911 131.814505,370.852262 124.790883,382.770774 C124.790883,382.770774 133.636175,369.521801 128.675065,354.116066 C123.713955,338.709644 111.47741,339.380026 107.014441,340.529017 C102.551609,341.693476 95.9350596,343.185268 92.9617127,354.110708 C92.9617127,354.110708 89.3239951,357.26068 92.9617127,359.246137 C92.9617127,359.246137 94.5260835,362.224391 91.3437149,366.69974 C88.1666955,371.164374 91.41872,371.931742 92.9617127,370.096571 L92.9611764,370.095967 Z" id="Fill-1-Copy-3" fill="#FFFFFF" opacity="0.152111235" transform="translate(156.500000, 378.000000) scale(-1, 1) translate(-156.500000, -378.000000) "></path>
        </g>
    </g>
</svg>