<?xml version="1.0" encoding="UTF-8"?>
<svg width="399px" height="267px" viewBox="0 0 399 267" version="1.1" xmlns="http://www.w3.org/2000/svg" xmlns:xlink="http://www.w3.org/1999/xlink">
    <!-- Generator: Sketch 54.1 (76490) - https://sketchapp.com -->
    <title>Bird pic</title>
    <desc>Created with Sketch.</desc>
    <g id="Page-1" stroke="none" stroke-width="1" fill="none" fill-rule="evenodd">
        <g id="Table-Birds-About" transform="translate(-441.000000, -336.000000)">
            <g id="Bird-pic" transform="translate(443.000000, 337.000000)">
                <path d="M196.414365,0 L192.897281,35.9189739 L188.67561,43.5229451 C188.847358,66.516332 187.819375,81.6199844 185.59166,88.8339023 C182.250087,99.6547791 179.496576,104.171403 168.242695,108.144984 C156.988814,112.118566 135.749419,112.118566 126.444886,108.144984 C117.140354,104.171403 113.328209,99.6547791 104.0437,99.6547791 C94.759192,99.6547791 86.5698657,104.036331 73.1812531,104.036331 C64.2555114,104.036331 40.1148244,102.575814 0.759192018,99.6547791 C-1.79472867,123.939155 2.09488935,140.507 12.4280461,149.358315 C27.9277812,162.635287 39.0283052,164.679276 49.553398,164.679276 C56.5701264,164.679276 66.4523945,163.997946 79.2002022,162.635287 C86.8281134,172.437615 99.3847042,178.076158 116.869975,179.550918 C134.355245,181.025678 154.052705,179.42871 175.962354,174.760016 L164.229056,200.532475 C166.789377,206.098889 177.517814,208.882096 196.414365,208.882096 C215.310916,208.882096 225.720243,206.791245 227.642344,202.609543 L216.857302,174.760016 C229.96813,180.711611 245.115775,182.833759 262.300236,181.126459 C279.484697,179.419159 296.49738,173.936765 313.338285,164.679276 C337.687816,168.710321 357.537744,165.468266 372.888068,154.953113 C388.238393,144.43796 395.57763,126.005182 394.90578,99.6547791 C371.111441,102.845625 352.729245,104.441048 339.759192,104.441048 C320.304113,104.441048 303.179796,99.6547791 287.759192,99.6547791 C272.338588,99.6547791 265.431951,108.144984 254.705019,110.209711 C243.978087,112.274437 229.644378,112.384385 220.436695,108.144984 C211.229013,103.905584 208.335745,95.4262158 206.259192,88.8339023 C204.874823,84.4390266 204.06135,69.3353742 203.818773,43.5229451 L199.676626,35.9189739 L196.414365,0 Z" id="Path-4" stroke="#F9B166" stroke-width="3"></path>
                <polyline id="Path-5" stroke="#546E7A" fill="#546E7A" points="182.79311 208.394164 179.011803 237.708312 170.759192 255.056527 175.404769 251.769667 175.404769 265.127853 179.011803 253.231732 182.79311 262.129759 179.011803 237.708312"></polyline>
                <polyline id="Path-5-Copy" stroke="#546E7A" fill="#546E7A" transform="translate(213.776151, 236.761008) scale(-1, 1) translate(-213.776151, -236.761008) " points="219.79311 208.394164 216.011803 237.708312 207.759192 255.056527 212.404769 251.769667 212.404769 265.127853 216.011803 253.231732 219.79311 262.129759 216.011803 237.708312"></polyline>
            </g>
        </g>
    </g>
</svg>