<?xml version="1.0" encoding="UTF-8"?>
<svg width="75px" height="41px" viewBox="0 0 75 41" version="1.1" xmlns="http://www.w3.org/2000/svg" xmlns:xlink="http://www.w3.org/1999/xlink">
    <!-- Generator: sketchtool 54.1 (76490) - https://sketchapp.com -->
    <title>4AA2E59C-7419-4C01-A253-180A087D96E0</title>
    <desc>Created with sketchtool.</desc>
    <g id="Page-1" stroke="none" stroke-width="1" fill="none" fill-rule="evenodd">
        <g id="Table-Observation" transform="translate(-33.000000, -7.000000)" fill="#FFFFFF" fill-rule="nonzero" stroke="#FFFFFF">
            <path d="M38.8800628,19.4526836 C39.556735,19.4526836 40.1576272,19.8853184 40.3722621,20.5270481 L41.4043307,23.612795 C41.678964,24.4339119 42.4478278,24.9874841 43.3136548,24.9874841 C43.4040708,24.9874841 43.4937497,24.9712215 43.5784084,24.9394731 C43.9683092,24.7932537 44.1658521,24.3586425 44.0196327,23.9687416 L42.4529943,19.7912261 C42.040975,18.692557 42.2069137,17.4605235 42.8949303,16.5100149 L45.5636728,12.8230938 C45.6279905,12.7342376 45.6626173,12.6273455 45.6626173,12.5176541 C45.6626173,12.2299603 45.4293954,11.9967384 45.1417017,11.9967384 L44.7962696,11.9967384 C43.9383308,11.9967384 43.1403188,12.4366691 42.6823129,13.1621272 L40.4487164,16.7000311 C40.1710214,17.1398858 39.6871762,17.4066215 39.1669967,17.4066215 C39.1130353,17.4066215 39.0591671,17.4021368 39.0059486,17.3932136 C38.4754792,17.3042691 38.1175524,16.802135 38.2064969,16.2716656 L38.7584821,12.9795957 C38.7662095,12.9335091 38.7700933,12.88686 38.7700933,12.84013 C38.7700933,12.3743377 38.392494,11.9967384 37.9267017,11.9967384 C37.2550879,11.9967384 36.6819047,12.4822734 36.5714596,13.1447437 L34.7602882,24.0084911 C34.7526706,24.0541827 34.7488423,24.1004256 34.7488423,24.1467479 C34.7488423,24.6110736 35.1252527,24.9874841 35.5895785,24.9874841 C36.2593899,24.9874841 36.8313739,24.5040088 36.9429276,23.8435521 L37.4854578,20.6314875 C37.6004121,19.9508973 38.1898327,19.4526836 38.8800628,19.4526836 Z M50.788644,24.7303654 C51.695538,24.7475983 52.5038767,24.5919957 53.2189218,24.2657809 C53.9465063,23.9338454 54.5759245,23.4867382 55.1103395,22.9227985 C55.6508569,22.3524193 56.0923324,21.6926111 56.43547,20.941208 C56.7821551,20.1820368 57.0202582,19.3846462 57.1500326,18.5477409 C57.2813103,17.7011411 57.3222104,16.9515562 57.2742213,16.2990965 C57.2093057,15.3912226 56.9813335,14.5893328 56.5916386,13.8883227 C56.2087271,13.1995148 55.7051007,12.678379 55.0759233,12.316212 C54.4425914,11.9516535 53.6964031,11.7593884 52.8294838,11.7422849 C51.4071888,11.7134901 50.1606187,12.1358707 49.0686566,13.0160172 C48.4143934,13.5415989 47.867913,14.2015428 47.4280828,14.9994331 C46.9837974,15.8054056 46.6741896,16.6875524 46.4992609,17.6480265 C46.3221895,18.6202657 46.2647221,19.457518 46.3246274,20.1621732 C46.4307648,21.5661874 46.8788976,22.6653858 47.66503,23.4806764 C48.4409647,24.2853911 49.4720784,24.7018255 50.7886439,24.7303654 Z M50.7886439,24.7303654 C50.7888517,24.7303699 50.7890594,24.7303744 50.7892672,24.7303789 L50.7880207,24.7303536 C50.7882284,24.7303575 50.7884362,24.7303615 50.788644,24.7303654 Z M54.8451673,16.2800743 L54.8451725,16.2802055 C54.8851394,17.2930475 54.7758901,18.3914837 54.5189198,19.5758098 C54.2527926,20.8023382 53.8109192,21.7553051 53.1822558,22.4279128 C52.5228382,23.1334245 51.7122445,23.4735245 50.7917616,23.4279058 C49.3095519,23.3717352 48.5114585,22.3015649 48.439158,20.448747 C48.4049246,19.9040917 48.4513265,19.1598259 48.5759628,18.2086531 C48.7773899,16.6333382 49.1973146,15.4215125 49.8514114,14.5751787 C50.5418333,13.6818439 51.4457558,13.2461007 52.5194679,13.2994053 C53.9838005,13.379543 54.7722141,14.4435401 54.8451673,16.2800743 Z M56.9756874,22.8647031 L56.8243621,23.9275402 C56.8210805,23.9505883 56.8194336,23.9738397 56.8194336,23.9971202 C56.8194336,24.269742 57.0404372,24.4907456 57.3032446,24.4908419 C58.4774553,24.4677893 59.4210453,24.0685697 60.1643785,23.2865844 C60.9302087,22.4809324 61.5350294,21.1451205 61.9582045,19.2863295 L62.8711708,14.9208577 C63.0925448,13.862328 64.025813,13.1040467 65.1072433,13.1040467 C65.2022332,13.1040467 65.2970616,13.111876 65.3907653,13.1274551 C66.3325803,13.28404 66.9691351,14.174469 66.8125502,15.116284 L65.4161945,23.514979 C65.4086399,23.5604174 65.4048434,23.6064012 65.4048434,23.6524634 C65.4048434,24.1154339 65.7801551,24.4907456 66.2431256,24.4907456 C66.9100958,24.4907456 67.4793594,24.008664 67.5892199,23.3508038 L69.0820058,14.4117893 C69.1047317,14.2757036 69.1161531,14.1379702 69.1161531,14 C69.1161531,12.6192881 67.996865,11.5 66.6161531,11.5 L63.5331441,11.5 C62.337199,11.5 61.3087552,12.3470092 61.0795051,13.5207763 L60.3966904,17.0168072 C60.3908546,17.0473597 60.3908546,17.0473597 60.3855264,17.0780049 L60.226022,18.0184378 C59.9690407,19.5893817 59.5896213,20.7517373 59.070044,21.5149818 C58.5389273,22.2951775 57.8371727,22.7541993 56.9756874,22.8647031 Z M75.1116058,16.6357703 C75.016063,16.6348638 74.9207458,16.6262553 74.8265809,16.610027 C73.8591326,16.4432982 73.2100213,15.5238659 73.3767501,14.5564176 L73.6719362,12.8435933 C73.6804604,12.7941315 73.6847458,12.7440322 73.6847458,12.6938413 C73.6847458,12.2068646 73.2899732,11.812092 72.8029965,11.812092 C72.0988405,11.812092 71.497063,12.3193167 71.3778577,13.0133093 L69.8549154,21.8796171 C69.8309033,22.0194115 69.8188319,22.1609959 69.8188319,22.3028376 C69.8188319,23.6835494 70.93812,24.8028376 72.3188319,24.8028376 L73.8329194,24.8028376 C75.400047,24.8028376 76.6936878,24.4063121 77.7309553,23.617278 C78.7446967,22.84614 79.2886695,21.8348797 79.3805751,20.5445036 C79.4425749,19.7777951 79.3060505,19.1135907 78.9738836,18.5382399 C78.6399014,17.9597446 78.1454096,17.5088036 77.4787405,17.1800137 C76.7938066,16.8422159 76.0063069,16.6600378 75.1116058,16.6357703 Z M72.1331679,20.2252438 C72.3642145,18.9201014 73.5018186,17.9711567 74.8464292,17.9784246 C75.5575722,18.0094 76.1297458,18.2365658 76.5338377,18.6705083 C76.9520852,19.1196521 77.1029323,19.7088215 76.9956405,20.3881901 C76.8785013,21.1611825 76.509562,21.7963806 75.9012975,22.2694322 C75.3048191,22.7333177 74.5934786,22.9656979 73.782246,22.9656881 C73.6808615,22.9650552 73.579712,22.9558529 73.4798778,22.9381795 C72.5015276,22.7649842 71.8488206,21.8314722 72.0220159,20.853122 L72.1331679,20.2252438 Z M83.2022731,11.9062337 C82.5157641,11.9062337 81.9289815,12.4005531 81.8124044,13.0770916 L80.3118192,21.785524 C80.2876575,21.9257424 80.2755106,22.0677677 80.2755106,22.2100526 C80.2755106,23.5907645 81.3947987,24.7100526 82.7755106,24.7100526 L87.559286,24.7100526 C87.6690881,24.7100526 87.7786882,24.7194644 87.8868828,24.7381845 C88.9325618,24.9191112 89.6335822,25.9134717 89.4526555,26.9591508 L89.4254657,27.116296 C89.417796,27.1606236 89.41394,27.2055272 89.41394,27.2505135 C89.41394,27.6852971 89.7664018,28.0377589 90.2011854,28.0377589 C90.8530761,28.0377589 91.4147737,27.5786225 91.544453,26.9397604 L92.2258438,23.5829045 C92.2303243,23.5608314 92.2325815,23.5383649 92.2325815,23.5158417 C92.2325815,23.3296547 92.0816472,23.1787204 91.8954602,23.1787204 C91.8175024,23.1787204 91.7396885,23.1720266 91.662876,23.1587128 C90.9217818,23.0302601 90.4251378,22.325353 90.5535906,21.5842589 L92.0552713,12.9204751 C92.0637403,12.8716145 92.0679982,12.8221168 92.0679982,12.7725276 C92.0679982,12.2940867 91.6801452,11.9062337 91.2017043,11.9062337 C90.5067686,11.9062337 89.9126854,12.4064009 89.7942694,13.0911733 L88.5326166,20.3870217 C88.2564728,21.9838981 86.8710819,23.1502785 85.250505,23.1502785 C85.107349,23.1502785 84.9644561,23.1380144 84.8233937,23.1136209 C83.4593132,22.8777338 82.5447316,21.5807038 82.7806186,20.2166233 L84.044684,12.9068236 C84.053004,12.858711 84.0571869,12.8099742 84.0571869,12.7611476 C84.0571869,12.2889917 83.6744289,11.9062337 83.2022731,11.9062337 Z M100.151207,22.1704006 C101.155877,22.1704006 102.00365,22.9178145 102.129568,23.9145625 C102.19234,24.411458 102.614969,24.7840564 103.115814,24.7840564 L103.477791,24.7840564 C103.531776,24.7840564 103.585653,24.7792098 103.638773,24.769575 C104.128945,24.6806671 104.454234,24.2112301 104.365326,23.721058 L102.398417,12.8769806 C102.284606,12.2495122 101.738215,11.7933108 101.100508,11.7933108 C100.353795,11.7933108 99.6691793,12.2090032 99.3247494,12.8715355 L93.5722053,23.9369135 C93.5292662,24.0195096 93.5068487,24.1112315 93.5068487,24.2043223 C93.5068487,24.5245006 93.7664045,24.7840564 94.0865828,24.7840564 L94.4232881,24.7840564 C95.1081621,24.7840564 95.7309395,24.3870521 96.0200235,23.7661794 C96.4732356,22.7928049 97.4495963,22.1704006 98.5233091,22.1704006 L100.151207,22.1704006 Z M99.9281962,20.7671092 C99.7489358,20.7671092 99.5714541,20.7315695 99.4060154,20.6625454 C98.7147889,20.3741529 98.3882275,19.5800148 98.67662,18.8887883 L99.2666696,17.4745424 C99.4250794,17.0948619 99.7769014,16.8309242 100.185738,16.7850556 C100.807405,16.7153087 101.367907,17.1627288 101.437654,17.7843963 L101.566689,18.9345089 C101.573537,18.9955455 101.576969,19.0569171 101.576969,19.1183367 C101.576969,20.0289286 100.838788,20.7671092 99.9281962,20.7671092 Z M41.5192038,42.8770449 C42.2140306,42.8770449 42.8078328,42.3765343 42.9254479,41.6917343 L44.4509841,32.8094806 C44.4749918,32.6696989 44.4870609,32.5281277 44.4870609,32.3862992 C44.4870609,31.0055874 43.3677728,29.8862992 41.9870609,29.8862992 L36.7648126,29.8862992 C35.5467623,29.8862992 34.5060015,30.7641343 34.3006108,31.9647429 L32.607722,41.8605009 C32.599433,41.9089541 32.5952661,41.9580227 32.5952661,42.0071798 C32.5952661,42.487593 32.984718,42.8770449 33.4651312,42.8770449 C34.1599882,42.8770449 34.7538281,42.3765396 34.8714982,41.6917185 L36.1468782,34.2692129 C36.4227428,32.6637254 37.814935,31.490346 39.4439504,31.490346 C39.5864575,31.490346 39.7287084,31.5024202 39.8691768,31.5264392 C41.2426099,31.7612852 42.1656171,33.0650531 41.9307711,34.4384862 L40.6616764,41.8604412 C40.653394,41.9088787 40.6492304,41.9579309 40.6492304,42.0070715 C40.6492304,42.4875445 41.0387308,42.8770449 41.5192038,42.8770449 Z M55.2910683,31.383743 C55.8088005,31.383743 56.2507597,31.0096884 56.3363332,30.4990771 C56.3419841,30.4653583 56.3448242,30.4312284 56.3448242,30.3970394 C56.3448242,30.0560902 56.0684303,29.7796963 55.7274811,29.7796963 L47.3933006,29.7796963 C46.8738325,29.7796963 46.429964,30.1540486 46.3423282,30.6660711 C46.3364711,30.7002923 46.3335267,30.7349486 46.3335267,30.7696674 C46.3335267,31.108812 46.6084577,31.383743 46.9476023,31.383743 L47.5626473,31.383743 C47.6813203,31.383743 47.7997872,31.3936241 47.9168204,31.4132839 C49.0812401,31.6088883 49.8666201,32.7114057 49.6710157,33.8758254 L48.3427612,41.7828347 C48.3349701,41.8292148 48.3310542,41.876163 48.3310542,41.9231928 C48.3310542,42.3911156 48.7103806,42.7704419 49.1783033,42.7704419 C49.8530114,42.7704419 50.4289062,42.2828275 50.5401527,41.6173538 L51.8565236,33.742861 C52.0841244,32.3813598 53.2623551,31.383743 54.6427492,31.383743 L55.2910683,31.383743 Z M61.3682187,35.515798 C61.3575943,35.5608842 61.359005,35.6079707 61.3723094,35.65234 L60.0804955,31.3442205 C59.8632303,30.6196546 59.1954031,30.1241859 58.4389672,30.126352 C58.365944,30.1265611 58.2934034,30.138196 58.2239778,30.1608346 C57.8564575,30.2806768 57.6556749,30.6757622 57.7755172,31.0432825 L60.2456113,38.6183179 C60.3979871,39.0856086 60.3479379,39.5953354 60.1080303,40.0232662 C59.8049739,40.566166 59.4555623,40.9628707 59.0506324,41.2047667 C58.6422184,41.448744 58.1507717,41.5593602 57.5531491,41.5424832 C57.5521914,41.5423981 57.5521914,41.5423981 57.5512328,41.5423243 C57.4913719,41.5378949 57.4392543,41.582831 57.4348249,41.6426919 L57.3695633,42.5246658 C57.3685623,42.5401907 57.3685623,42.5401907 57.36815,42.5557423 C57.3630012,42.8580557 57.6039007,43.1073031 57.8908037,43.112427 C58.7067061,43.1011732 59.4222479,42.8819332 60.0499447,42.4535847 C60.6898994,42.0168711 61.2949698,41.3005701 61.8637164,40.2887317 L67.4302178,30.9251058 C67.4785168,30.8438601 67.5040091,30.7510917 67.5040091,30.6565737 C67.5040091,30.3663484 67.268735,30.1310742 66.9785097,30.1310742 L66.9491466,30.1310742 C66.0376444,30.1310742 65.1983822,30.627163 64.7589108,31.4257248 L62.3088722,35.8776803 C62.083825,36.1288057 62.083825,36.1288057 61.7466181,36.1275134 C61.3884978,35.9261478 61.3884978,35.9261478 61.3682187,35.515798 Z M70.8414576,31.002057 C70.8495378,30.9545357 70.8535994,30.9064181 70.8535994,30.8582148 C70.8535994,30.3842955 70.469412,30.0001081 69.9954927,30.0001081 C69.3103305,30.0001081 68.725048,30.4942397 68.6101506,31.1696995 L67.0959117,40.0716194 C67.0723522,40.2101212 67.0605096,40.3503624 67.0605096,40.4908537 C67.0605096,41.8715656 68.1797977,42.9908537 69.5605096,42.9908537 L79.6536154,42.9908537 C80.8725558,42.9908537 81.9138047,42.1117671 82.1182133,40.910088 L83.8043916,30.9973691 C83.8124399,30.9500545 83.8164856,30.9021456 83.8164856,30.8541514 C83.8164856,30.3824763 83.4341174,30.0001081 82.9624423,30.0001081 C82.2800239,30.0001081 81.6970961,30.4922852 81.5827041,31.1650477 L80.1857936,39.3805568 C79.9878449,40.5447325 78.9791229,41.396416 77.7982382,41.396416 C77.6931916,41.396416 77.5883318,41.3875647 77.4847716,41.369956 C76.4666015,41.1968331 75.7815555,40.2310994 75.9546783,39.2129294 L77.350012,31.0066937 C77.3581296,30.9589526 77.36221,30.9106123 77.36221,30.8621859 C77.36221,30.3860734 76.9762447,30.0001081 76.5001323,30.0001081 C75.8122815,30.0001081 75.2247134,30.4962032 75.1094107,31.1743212 L73.7172306,39.3620099 C73.5174607,40.5368966 72.4994579,41.396416 71.3077085,41.396416 C71.2017696,41.396416 71.0960191,41.3874895 70.9915792,41.3697312 C69.9647607,41.1951378 69.2738957,40.221201 69.4484891,39.1943825 L70.8414576,31.002057 Z M89.6028721,40.5844018 C90.6075421,40.5844018 91.4553157,41.3318157 91.5812329,42.3285637 C91.6440048,42.8254592 92.0666341,43.1980576 92.5674788,43.1980576 L92.9294559,43.1980576 C92.9834418,43.1980576 93.0373186,43.193211 93.0904378,43.1835762 C93.5806099,43.0946683 93.9058988,42.6252313 93.8169909,42.1350592 L91.8500822,31.2909818 C91.7362714,30.6635134 91.1898801,30.207312 90.5521737,30.207312 C89.8054603,30.207312 89.1208445,30.6230044 88.7764147,31.2855367 L83.0238706,42.3509147 C82.9809315,42.4335108 82.958514,42.5252327 82.958514,42.6183235 C82.958514,42.9385018 83.2180698,43.1980576 83.5382481,43.1980576 L83.8749533,43.1980576 C84.5598274,43.1980576 85.1826048,42.8010533 85.4716888,42.1801807 C85.9249009,41.2068061 86.9012616,40.5844018 87.9749744,40.5844018 L89.6028721,40.5844018 Z M89.4395525,38.6131878 C89.2602921,38.6131878 89.0828104,38.5776481 88.9173717,38.508624 C88.2261453,38.2202315 87.8995838,37.4260934 88.1879763,36.734867 L88.7780259,35.320621 C88.9364357,34.9409405 89.2882577,34.6770028 89.6970938,34.6311342 C90.3187613,34.5613873 90.8792635,35.0088074 90.9490103,35.6304749 L91.0780452,36.7805875 C91.0848931,36.8416242 91.0883251,36.9029957 91.0883251,36.9644153 C91.0883251,37.8750072 90.3501444,38.6131878 89.4395525,38.6131878 Z M99.5599555,37.6014225 C100.236628,37.6014225 100.83752,38.0340572 101.052155,38.675787 L102.084223,41.7615339 C102.358857,42.5826508 103.127721,43.1362229 103.993548,43.1362229 C104.083964,43.1362229 104.173642,43.1199604 104.258301,43.0882119 C104.648202,42.9419926 104.845745,42.5073813 104.699525,42.1174805 L103.132887,37.939965 C102.720868,36.8412959 102.886806,35.6092624 103.574823,34.6587537 L106.243565,30.9718327 C106.307883,30.8829765 106.34251,30.7760843 106.34251,30.6663929 C106.34251,30.3786992 106.109288,30.1454773 105.821594,30.1454773 L105.476162,30.1454773 C104.618224,30.1454773 103.820212,30.5854079 103.362206,31.3108661 L101.128609,34.8487699 C100.850914,35.2886247 100.367069,35.5553604 99.8468894,35.5553604 C99.792928,35.5553604 99.7390598,35.5508756 99.6858413,35.5419524 C99.1553719,35.453008 98.7974451,34.9508739 98.8863896,34.4204044 L99.4383748,31.1283345 C99.4461022,31.0822479 99.449986,31.0355988 99.449986,30.9888689 C99.449986,30.5230766 99.0723867,30.1454773 98.6065944,30.1454773 C97.9349806,30.1454773 97.3617974,30.6310123 97.2513523,31.2934826 L95.4401809,42.1572299 C95.4325633,42.2029215 95.428735,42.2491645 95.428735,42.2954867 C95.428735,42.7598125 95.8051454,43.1362229 96.2694712,43.1362229 C96.9392826,43.1362229 97.5112666,42.6527477 97.6228203,41.992291 L98.1653505,38.7802264 C98.2803048,38.0996361 98.8697254,37.6014225 99.5599555,37.6014225 Z" id="КОЛЬЦАПТУШАК" transform="translate(69.500000, 27.349029) rotate(-6.000000) translate(-69.500000, -27.349029) "></path>
        </g>
    </g>
</svg>