<?xml version="1.0" encoding="UTF-8"?>
<svg width="14px" height="18px" viewBox="0 0 14 18" version="1.1" xmlns="http://www.w3.org/2000/svg" xmlns:xlink="http://www.w3.org/1999/xlink">
    <!-- Generator: sketchtool 55 (78076) - https://sketchapp.com -->
    <title>F21DED44-FEB8-4E8E-896A-4962BBD04378</title>
    <desc>Created with sketchtool.</desc>
    <defs>
        <path d="M1,16 C1,17.1 1.9,18 3,18 L11,18 C12.1,18 13,17.1 13,16 L13,4 L1,4 L1,16 Z M3,6 L11,6 L11,16 L3,16 L3,6 Z M10.5,1 L9.5,0 L4.5,0 L3.5,1 L0,1 L0,3 L14,3 L14,1 L10.5,1 Z" id="path-1"></path>
    </defs>
    <g id="🎨-Styleguide" stroke="none" stroke-width="1" fill="none" fill-rule="evenodd">
        <g id="Icons-/-Logos" transform="translate(-97.000000, -583.000000)">
            <g id="Icon-/-Delete" transform="translate(92.000000, 580.000000)">
                <g id="baseline-add_circle_outline-24px">
                    <g id="-Color-/-Primary-/-700" transform="translate(5.000000, 3.000000)">
                        <g>
                            <mask id="mask-2" fill="white">
                                <use xlink:href="#path-1"></use>
                            </mask>
                            <use id="Mask" fill="#000000" fill-rule="nonzero" xlink:href="#path-1"></use>
                            <g mask="url(#mask-2)" fill="#546E7A" id="Rectangle-13">
                                <g transform="translate(-5.000000, -3.000000)">
                                    <rect x="0" y="0" width="24" height="24"></rect>
                                </g>
                            </g>
                        </g>
                    </g>
                    <polygon id="Path" points="0 0 24 0 24 24 0 24"></polygon>
                </g>
            </g>
        </g>
    </g>
</svg>