<?xml version="1.0" encoding="UTF-8"?>
<svg width="18px" height="18px" viewBox="0 0 18 18" version="1.1" xmlns="http://www.w3.org/2000/svg" xmlns:xlink="http://www.w3.org/1999/xlink">
    <!-- Generator: sketchtool 55 (78076) - https://sketchapp.com -->
    <title>DB4E9185-B27E-494E-BA39-AF12526876B4</title>
    <desc>Created with sketchtool.</desc>
    <defs>
        <path d="M0,15.25 L0,19 L3.75,19 L14.81,7.94 L11.06,4.19 L0,15.25 Z M17.71,5.04 C18.1,4.65 18.1,4.02 17.71,3.63 L15.37,1.29 C14.98,0.9 14.35,0.9 13.96,1.29 L12.13,3.12 L15.88,6.87 L17.71,5.04 Z" id="path-1"></path>
    </defs>
    <g id="🎨-Styleguide" stroke="none" stroke-width="1" fill="none" fill-rule="evenodd">
        <g id="Icons-/-Logos" transform="translate(-180.000000, -583.000000)">
            <g id="Icon-/-Edit" transform="translate(177.000000, 580.000000)">
                <g id="baseline-add_circle_outline-24px">
                    <g id="-Color-/-Primary-/-700" transform="translate(3.000000, 2.000000)">
                        <g>
                            <g>
                                <mask id="mask-2" fill="white">
                                    <use xlink:href="#path-1"></use>
                                </mask>
                                <use id="Mask" fill="#000000" fill-rule="nonzero" xlink:href="#path-1"></use>
                                <g mask="url(#mask-2)" fill="#546E7A" id="Rectangle-13">
                                    <g transform="translate(-3.000000, -2.000000)">
                                        <rect x="0" y="0" width="24" height="24"></rect>
                                    </g>
                                </g>
                            </g>
                        </g>
                    </g>
                    <polygon id="Path" points="0 0 24 0 24 24 0 24"></polygon>
                </g>
                <g id="baseline-edit-24px">
                    <polygon id="Path" points="0 0 24 0 24 24 0 24"></polygon>
                </g>
            </g>
        </g>
    </g>
</svg>