<?xml version="1.0" encoding="UTF-8"?>
<svg width="8px" height="8px" viewBox="0 0 8 8" version="1.1" xmlns="http://www.w3.org/2000/svg" xmlns:xlink="http://www.w3.org/1999/xlink">
    <!-- Generator: sketchtool 54.1 (76490) - https://sketchapp.com -->
    <title>2FD04831-B889-44F0-9BE0-9431FCA947CE</title>
    <desc>Created with sketchtool.</desc>
    <g id="Actial" stroke="none" stroke-width="1" fill="none" fill-rule="evenodd">
        <g id="Table-Observation-State" transform="translate(-612.000000, -255.000000)" fill="#ff8f1a" fill-rule="nonzero">
            <g id="ic/filter/active" transform="translate(610.000000, 253.000000)">
                <path d="M9.96582932,2.22161525 C9.90142434,2.07393145 9.7899626,2.0000796 9.63090754,2 L2.36890359,2 C2.21006713,2 2.0984464,2.07393145 2.03414079,2.22161525 C1.96987491,2.37686135 1.99632447,2.50952004 2.1136087,2.61933263 L4.9107242,5.42042916 L4.9107242,8.18176391 C4.9107242,8.28037234 4.94667255,8.36548804 5.01850964,8.43756872 L6.47085081,9.89197849 C6.53899172,9.96389996 6.62406352,10 6.72622519,10 C6.77157297,10 6.81882846,9.99046752 6.86801153,9.97154186 C7.0155806,9.90710309 7.089385,9.79539993 7.089385,9.63631298 L7.089385,5.42044906 L9.88640115,2.61935253 C10.0037251,2.50953994 10.0301151,2.37692105 9.96582932,2.22161525 Z" id="Path"></path>
            </g>
        </g>
    </g>
</svg>
